<svg width="444" height="126" viewBox="0 0 444 126" fill="none" xmlns="http://www.w3.org/2000/svg">
<path d="M127.83 70.5749C126.319 65.9244 123.993 61.506 122.017 57.0878C121.784 56.5064 120.854 56.5064 120.505 56.8552C118.529 58.9481 116.32 61.0409 115.04 63.5988H114.924C100.739 64.6452 87.0198 52.5531 77.2532 43.7169C65.9752 33.6016 55.7436 21.2771 51.6742 6.51103C51.4416 4.65073 51.2091 2.67417 51.2091 0.69761C51.2091 -0.232537 49.9301 -0.232537 49.8139 0.69761C49.8139 1.04642 49.8139 1.39522 49.8139 1.74403C49.3488 1.74403 49 2.09283 49 2.67417C49.1163 3.95312 49.4651 5.23208 49.6976 6.51103C50.6278 38.0198 82.0202 68.3658 112.715 70.3424C111.669 72.2027 110.739 74.179 109.576 76.0395C108.994 76.8532 109.925 77.6671 110.739 77.5508C116.552 76.7371 121.784 73.9465 127.133 71.8539C127.597 71.7376 128.063 71.2725 127.83 70.5749ZM112.25 75.2256C112.948 73.7141 113.413 72.2027 114.227 70.6912C114.459 70.1096 114.11 69.6448 113.761 69.5285C113.761 69.1797 113.529 68.947 113.18 68.8309C85.392 64.1801 62.8359 45.2284 54.4646 19.5329C59.9292 29.6482 68.3006 38.4846 76.5556 45.9258C82.6016 51.3906 88.9963 56.2737 95.9724 60.3431C101.437 63.4823 108.297 66.3891 114.575 64.4127C114.227 65.3428 115.622 65.8079 116.087 65.1103C117.598 63.1337 119.11 61.2734 120.738 59.5294C122.365 63.1337 124.109 66.7379 125.388 70.4584C121.086 72.0864 116.784 74.1792 112.25 75.2256Z" fill="white"/>
<rect y="49" width="444" height="77" rx="13" fill="url(#paint0_linear_278_866)"/>
<path d="M213.391 77.6719L212.688 83.375H206.797L206.516 85.6875H212.016L211.328 91.3125H205.828L204.891 99H197.141L199.766 77.6719H213.391ZM236.469 77.6719L235.016 89.4844C234.828 91.026 234.625 92.2188 234.406 93.0625C234.198 93.8958 233.927 94.5938 233.594 95.1562C232.542 96.8854 231.042 98.1146 229.094 98.8438C227.854 99.3021 226.422 99.5312 224.797 99.5312C221.682 99.5312 219.167 98.7604 217.25 97.2188C215.656 95.9375 214.859 94.1042 214.859 91.7188C214.859 91.125 214.896 90.5312 214.969 89.9375L216.469 77.6719H224.328L222.875 89.4844C222.781 90.2552 222.734 90.8021 222.734 91.125C222.734 91.75 222.927 92.2344 223.312 92.5781C223.635 92.8802 224.078 93.0312 224.641 93.0312C225.349 93.0312 225.906 92.7812 226.312 92.2812C226.708 91.7917 226.979 90.9479 227.125 89.75L228.609 77.6719H236.469ZM253.719 77.6719L252.906 84.3906L249.5 84.1562L247.672 99H239.828L241.641 84.1562L237.969 84.3906L238.797 77.6719H253.719ZM276.094 77.6719L274.641 89.4844C274.453 91.026 274.25 92.2188 274.031 93.0625C273.823 93.8958 273.552 94.5938 273.219 95.1562C272.167 96.8854 270.667 98.1146 268.719 98.8438C267.479 99.3021 266.047 99.5312 264.422 99.5312C261.307 99.5312 258.792 98.7604 256.875 97.2188C255.281 95.9375 254.484 94.1042 254.484 91.7188C254.484 91.125 254.521 90.5312 254.594 89.9375L256.094 77.6719H263.953L262.5 89.4844C262.406 90.2552 262.359 90.8021 262.359 91.125C262.359 91.75 262.552 92.2344 262.938 92.5781C263.26 92.8802 263.703 93.0312 264.266 93.0312C264.974 93.0312 265.531 92.7812 265.938 92.2812C266.333 91.7917 266.604 90.9479 266.75 89.75L268.234 77.6719H276.094ZM292.75 90.6562L297.391 99H289L287.094 93.8438C286.667 92.7292 286.391 91.776 286.266 90.9844L286.031 91.0312C286.062 91.5729 286.078 92.0885 286.078 92.5781C286.078 93.599 286.026 94.5469 285.922 95.4219L285.484 99H277.734L280.359 77.6719H288.859C291.172 77.6719 292.865 77.9115 293.938 78.3906C295.333 79.0156 296.406 79.9896 297.156 81.3125C297.76 82.3854 298.062 83.5156 298.062 84.7031C298.062 85.6302 297.87 86.5104 297.484 87.3438C297.109 88.1667 296.583 88.8542 295.906 89.4062C295.26 89.9271 294.557 90.2812 293.797 90.4688C293.526 90.5312 293.177 90.5938 292.75 90.6562ZM287.391 83.3906L286.922 87.2188H287.578C288.568 87.2188 289.328 86.9844 289.859 86.5156C290.276 86.1406 290.484 85.6667 290.484 85.0938C290.484 83.9583 289.661 83.3906 288.016 83.3906H287.391ZM335.031 77.6719L335.094 99H327.578L327.969 92.7031C328.104 90.6406 328.354 88.6615 328.719 86.7656L328.422 86.7188C328.109 88 327.906 88.7865 327.812 89.0781C327.573 89.9219 327.146 91.0729 326.531 92.5312L323.828 99H318.969L318.125 92.25C317.958 90.9583 317.875 89.6458 317.875 88.3125C317.875 87.8646 317.896 87.3333 317.938 86.7188H317.688C317.448 88.6042 317.12 90.4479 316.703 92.25L315.141 99H307.312L313.516 77.6719H321.703L322.547 84.3281C322.641 85.0469 322.688 85.8333 322.688 86.6875C322.688 87.4792 322.63 88.2552 322.516 89.0156H322.828C323.182 87.1823 323.818 85.151 324.734 82.9219L326.844 77.6719H335.031ZM355.172 77.6719L354.484 83.2188H348.203L347.906 85.5625H353.672L353.016 90.8594H347.266L346.969 93.2656H353.484L352.781 99H338.516L341.141 77.6719H355.172ZM358.734 77.6719H365.969C369.781 77.6719 372.724 78.5781 374.797 80.3906C375.964 81.4219 376.818 82.724 377.359 84.2969C377.766 85.474 377.969 86.7031 377.969 87.9844C377.969 89.6823 377.63 91.2604 376.953 92.7188C376.276 94.1771 375.312 95.4115 374.062 96.4219C372.604 97.5781 370.99 98.3177 369.219 98.6406C367.833 98.8802 366.312 99 364.656 99H356.109L358.734 77.6719ZM365.703 83.9375L364.625 92.6562H365.719C366.354 92.6562 366.99 92.5052 367.625 92.2031C368.271 91.901 368.802 91.5 369.219 91C369.948 90.1146 370.312 89.0417 370.312 87.7812C370.312 86.7396 370 85.8594 369.375 85.1406C368.656 84.3385 367.745 83.9375 366.641 83.9375H365.703ZM390.391 77.6719L387.766 99H379.922L382.547 77.6719H390.391ZM399.234 96.1562L398.219 99H389.906L399.766 77.4688H408.609L412.562 99H404.656L404.484 96.1562H399.234ZM401.047 91.2656H404L403.656 87.4219C403.625 87.0365 403.609 86.526 403.609 85.8906C403.609 85.3281 403.635 84.7656 403.688 84.2031H403.438C403.219 85.224 402.901 86.2969 402.484 87.4219L401.047 91.2656Z" fill="white"/>
<defs>
<linearGradient id="paint0_linear_278_866" x1="444" y1="88.0001" x2="47.5285" y2="88" gradientUnits="userSpaceOnUse">
<stop stop-color="#E8208A"/>
<stop offset="0.810968" stop-color="#E8208A" stop-opacity="0"/>
</linearGradient>
</defs>
</svg>
