<?xml version="1.0" encoding="UTF-8"?>
<svg id="Layer_1" xmlns="http://www.w3.org/2000/svg" version="1.1" viewBox="0 0 1080 1080">
  <!-- Generator: Adobe Illustrator 29.5.1, SVG Export Plug-In . SVG Version: 2.1.0 Build 141)  -->
  <defs>
    <style>
      .st0 {
        fill: #fff;
      }
    </style>
  </defs>
  <g>
    <path class="st0" d="M647.9,713.38h-.11l-5.46-20.38-27.3-101.89-10.78-40.23c-9.8-36.57-42.94-62-80.8-62h-74.25c-23.21,0-43.52,15.59-49.53,38.01l-11.75,43.85c-2.75,10.28,4.99,20.37,15.63,20.37h93.21c7.32,0,13.74,4.92,15.63,11.99l29.55,110.27,15.95,59.53c6.75,25.18,29.57,42.69,55.63,42.69h40.66c10.64,0,18.39-10.09,15.63-20.37l-21.93-81.85Z"/>
    <polygon class="st0" points="813.68 713.38 813.57 713.38 808.11 693 780.82 591.12 753.42 488.89 647.58 488.89 674.97 591.12 707.74 713.38 735.12 815.61 841.07 815.61 835.62 795.24 813.68 713.38"/>
    <path class="st0" d="M1005.37,810.06l-3.97-14.82-21.93-81.85h-.11l-5.46-20.38-27.3-101.89-11.03-41.16c-9.65-36.02-42.29-61.07-79.59-61.07h-42.62l27.39,102.23,32.76,122.27,21.86,81.61c3.26,12.16,14.27,20.61,26.86,20.61h78.87c2.9,0,5.01-2.75,4.26-5.55Z"/>
  </g>
  <path class="st0" d="M665.8,331.35c.02-.12.07-.22.1-.32l16.19-60.45c.85-3.11-1.49-6.18-4.73-6.18h-355.47c-37.46,0-70.24,25.16-79.93,61.32l-10.96,40.9-.75,2.74-32.01,119.54h-61.92c-23.21,0-43.51,15.59-49.52,38.01l-11.76,43.84c-2.77,10.29,4.98,20.38,15.62,20.38h80.19l-32.21,120.19-.56,2.03v.02l-30.17,102.22h43.94c38.16,0,71.54-25.61,81.4-62.47l3.21-12.01,7.45-27.75,42.1-157.1,3.24-12.11,46.6-173.89c.57-2.12,2.52-3.64,4.73-3.64h.05l.02-.02h278.16c21.79,0,40.92-14.42,46.98-35.27Z"/>
</svg>