<svg width="196" height="105" viewBox="0 0 196 105" fill="none" xmlns="http://www.w3.org/2000/svg">
<path d="M20.1677 51.3296C19.9093 52.0765 20.4008 52.5312 19.3406 52.7368C18.2804 52.9425 15.269 52.3532 13.7832 51.688C12.2619 51.0297 10.7017 49.7922 10.3731 49.2325C10.0798 48.666 9.27597 48.4919 9.09771 47.5731C8.9126 46.6189 9.5134 46.5023 10.6443 46.2829C11.7752 46.0635 12.1481 46.2845 13.0317 46.1131C13.8799 45.9486 14.4691 45.3942 14.8531 44.9163C15.2724 44.4316 15.6042 44.4406 15.4191 43.4864C15.2409 42.5675 14.8827 42.2336 14.2793 41.5806C13.6759 40.9275 13.3668 40.6575 12.766 40.774C12.1652 40.8906 10.5115 42.3849 9.6865 43.425C8.86835 44.5005 7.8313 45.5818 7.83392 46.3514C7.83653 47.121 7.8824 47.7355 7.59225 49.0753C7.30895 50.4504 7.18547 52.2712 7.35687 53.1548C7.52142 54.003 8.25249 54.5579 8.39646 55.3C8.53359 56.0069 8.31044 56.7469 7.85101 56.836C7.39157 56.9252 6.96168 56.7885 6.42683 56.4889C5.89198 56.1893 5.25005 56.0938 4.99637 54.7862C4.73584 53.4432 3.79435 51.4256 4.4189 50.8644C5.08565 50.3316 5.27769 48.8642 5.52883 46.9453C5.77997 45.0263 7.01592 42.5129 7.78289 41.7407C8.51452 40.9754 9.88336 39.9031 10.3882 39.2917C10.8998 38.7157 11.642 38.5718 12.3135 38.4415C13.6918 38.1741 15.1587 39.6864 16.1751 40.9561C17.1846 42.1904 17.4963 43.2301 17.6883 44.2196C17.8871 45.2445 17.5057 46.492 17.0078 47.1387C16.5098 47.7853 15.6115 48.0696 14.94 48.1999C14.2685 48.3302 12.8127 48.5759 13.9668 49.2321C15.1631 49.9168 17.1358 50.6343 18.4651 50.303C19.7943 49.9718 20.4684 50.6111 20.1677 51.3296ZM36.4334 48.2107C36.502 48.5641 36.3427 49.2551 35.8025 49.8733C35.2202 50.463 34.5286 51.6239 32.1608 52.0833C29.7576 52.5495 28.9674 52.4461 27.2305 51.2429C25.465 50.0819 24.0873 49.029 24.5204 48.6149C24.9113 48.1724 24.1022 46.4591 23.9239 45.5402C23.7456 44.6214 24.2463 42.2873 25.1124 41.4592C25.9717 40.5957 28.2879 39.303 28.9594 39.1727C30.479 38.8779 30.9501 39.2266 31.6094 39.9788C32.2334 40.7378 32.5952 41.6578 32.5076 42.1515C32.3847 42.652 32.6838 43.4375 32.017 43.9702C31.3503 44.5029 31.2606 45.3638 30.9472 45.8279C30.5986 46.299 29.6712 47.9457 29.1195 48.1261C28.5324 48.3133 28.1837 48.7844 28.8167 49.2116C29.4496 49.6389 30.1395 49.9818 32.4014 49.543C34.6632 49.1042 33.9321 48.5493 34.6743 48.4053C35.4165 48.2613 36.3717 47.8926 36.4334 48.2107ZM29.5511 41.8449C29.1861 41.4757 28.857 42.2363 28.4682 42.3117C28.0088 42.4008 27.7672 42.6677 27.1621 43.5185C26.5993 44.3978 26.3487 44.9965 26.47 45.9998C26.5982 47.0384 27.5988 46.1475 27.7787 45.5625C27.9586 44.9776 28.7335 44.0571 29.0763 43.3672C29.4192 42.6773 29.8739 42.1857 29.5511 41.8449ZM49.2989 40.5442C49.3812 40.9683 49.4286 42.5359 48.8658 43.4152C48.3029 44.2945 48.2475 45.3321 47.3993 45.4966C46.5511 45.6612 46.0906 45.9338 45.2071 46.1052C44.2882 46.2835 43.555 46.0957 43.2881 45.8541C43.0144 45.5772 42.6072 45.1795 42.7375 45.8509C42.8609 46.4871 44.4448 49.7369 44.7565 50.7766C45.0613 51.7809 45.7032 54.3334 45.9543 54.8714C46.2053 55.4094 46.7428 56.4786 46.8388 56.9734C46.9416 57.5035 46.6467 58.4408 45.9046 58.5848C45.1271 58.7357 44.6608 58.7895 44.1998 57.9254C43.7035 57.0683 42.4924 56.4964 42.1976 54.9768C41.9028 53.4571 40.3114 51.4922 40.3811 49.2051C40.4862 46.9111 39.8406 43.7726 39.4129 43.2688C39.0273 42.7936 38.4376 42.2112 38.8707 41.7972C39.2969 41.3478 40.0723 41.5641 40.4257 41.4955C40.7791 41.4269 40.6362 40.5012 41.0191 40.2069C41.3736 39.9548 41.9786 39.104 42.3901 38.7674C42.7662 38.4378 43.0943 37.8607 44.5433 37.5796C45.5328 37.3877 47.2387 37.8635 47.6891 38.1062C48.1327 38.3135 48.3347 38.7877 48.8284 38.8752C49.28 38.9343 49.2098 40.0848 49.2989 40.5442ZM46.7543 41.0378C46.6584 40.5431 46.0913 39.6996 45.1725 39.8779C44.4303 40.0218 43.4571 41.0541 43.0936 41.638C42.7302 42.2219 42.2997 43.4055 42.4163 44.0063C42.526 44.5718 42.9833 44.8498 43.2328 44.4347C43.4538 44.0618 43.821 44.0639 44.7045 43.8925C45.6234 43.7142 45.9868 43.1303 46.2363 42.7152C46.528 42.3286 46.8503 41.5326 46.7543 41.0378ZM63.0721 38.2389C63.4012 39.9353 62.9174 41.7894 62.3535 42.8522C61.7828 43.8797 60.6296 45.4969 59.6401 45.6889C58.6505 45.8809 56.4874 45.127 56.0142 45.1455C55.5479 45.1993 55.1424 43.2977 54.635 43.1395C54.1275 42.9812 53.4714 41.6783 53.3343 40.9715C53.1971 40.2647 53.7326 39.244 53.7653 38.4676C53.8334 37.6843 54.133 37.1494 54.5924 37.0603C55.0518 36.9712 56.054 37.0334 56.1432 37.4929C56.2254 37.917 55.6309 39.3891 55.8023 40.2727C55.9806 41.1915 56.8952 41.7475 56.9569 42.0656C57.0255 42.419 57.6073 43.1496 58.6322 42.9507C59.6924 42.7451 60.106 42.0414 60.5148 40.9353C60.9168 39.7939 60.9257 39.4621 60.8366 39.0026C60.7475 38.5432 59.6878 37.4286 59.1382 37.2419C58.5954 37.0905 57.7209 36.9301 57.3321 37.0055C56.9434 37.0809 56.2123 36.526 56.0683 35.7838C55.9243 35.0417 56.7356 33.9308 57.1244 33.8554C57.5838 33.7663 59.7939 34.9511 60.3652 35.0603C60.9649 35.1273 62.743 36.5426 63.0721 38.2389ZM76.2094 32.3166C76.278 32.67 75.7468 32.9564 75.2167 33.0592C74.7219 33.1552 73.5683 33.6357 73.2265 34.1421C72.8425 34.6199 72.0961 35.4982 71.9652 36.147C71.8276 36.7604 71.3317 37.04 71.5031 37.9235C71.6745 38.807 71.9419 40.1853 72.2626 40.8932C72.5479 41.6079 72.5896 42.9567 71.6 43.1487C70.6105 43.3406 69.8668 42.5315 69.5735 41.9649C69.2449 41.4053 68.8404 39.3202 68.5371 39.269C68.1984 39.2247 68.1331 38.3206 68.2845 37.7778C68.4359 37.235 68.0593 36.428 67.7455 35.7554C67.3963 35.0898 66.9237 33.7879 68.09 33.5617C68.4787 33.4863 69.1982 33.6034 69.3021 33.9499C69.406 34.2965 69.7219 34.6019 70.1128 34.1594C70.5037 33.7168 70.8091 33.4009 71.3767 32.9241C71.9443 32.4472 72.7708 32.3602 73.1617 31.9177C73.5172 31.482 74.224 31.3449 74.6835 31.2558C75.1076 31.1735 76.1409 31.9631 76.2094 32.3166ZM89.6481 29.5628C89.7578 30.1283 88.7387 30.546 88.2861 30.6705C87.8689 30.7881 87.3377 31.0745 86.5475 30.9711C85.7574 30.8677 85.2763 31.0343 85.0769 31.3297C84.8844 31.6604 84.1923 31.6847 83.9813 31.5422C83.7419 31.442 83.2197 31.3966 83.3294 31.9621C83.4322 32.4922 84.4918 36.0638 84.7318 37.3007C84.9786 38.573 84.8377 39.7371 84.5951 40.1876C84.3878 40.6312 84.0243 41.2151 83.5295 41.3111C83.0348 41.4071 82.2172 41.1623 81.916 40.744C81.657 40.3542 81.2192 40.3658 81.1506 40.0124C81.0821 39.659 81.5014 39.1742 81.7863 38.7522C82.0711 38.3303 81.8892 36.8254 81.6287 35.4824C81.3681 34.1395 81.0333 32.2242 80.5385 32.3202C80.0437 32.4161 79.3838 32.9842 79.0953 32.8202C78.8068 32.6561 77.8457 32.8059 77.688 31.993C77.5372 31.2155 77.6543 30.4961 78.1137 30.4069C78.5732 30.3178 80.4009 30.4766 80.2295 29.5931C80.0581 28.7096 79.5021 27.1672 79.3856 26.5664C79.269 25.9656 78.9922 23.7824 79.7343 23.6384C80.4412 23.5013 81.0546 23.639 81.2851 24.071C81.5087 24.4677 82.0256 25.4308 82.1765 26.2083L82.6496 28.6469C82.7455 29.1417 83.2609 29.1517 83.6428 29.0409C84.0178 28.8948 84.3338 29.2003 85.3017 29.0858C86.2628 28.9361 87.3963 29.4862 87.8077 29.1497C88.2192 28.8132 89.5452 29.0327 89.6481 29.5628ZM108.914 36.8267C109.016 37.3568 108.546 38.1448 108.016 38.2477C107.486 38.3505 106.41 37.5324 105.896 37.3388C105.382 37.1452 104.607 36.7453 104.42 36.1582C104.24 35.6065 103.275 35.1702 102.839 34.8147C102.446 34.4877 102.245 33.8299 101.856 33.9053C101.467 33.9807 101.048 34.4655 101.121 35.2213C101.23 35.9704 100.52 36.6582 100.369 37.0174C100.261 37.4051 99.1858 39.0439 97.5954 39.3524C96.0051 39.6609 94.9248 38.4403 94.5087 38.3744C94.0925 38.3084 94.0202 37.369 93.6974 37.0282C93.3324 36.659 92.8794 35.6468 92.7011 34.7279C92.516 33.7737 92.9153 31.8626 93.2398 30.6996C93.5574 29.5012 95.0217 27.7869 95.2279 27.5269C95.4764 27.2953 96.2882 27.3212 96.4955 26.8776C96.6674 26.4408 97.5262 26.8977 97.7187 26.5669C97.9534 26.2647 98.2214 26.3227 98.5041 26.2679C99.1049 26.1513 100.282 26.5464 100.796 26.74C101.303 26.8983 102.29 27.257 102.489 28.2819C102.681 29.2715 102.807 30.6772 103.051 31.1799C103.295 31.6826 104.038 32.6753 104.803 33.4069C105.575 34.1739 106.24 35.145 107.05 35.538C107.895 35.9241 108.811 36.2966 108.914 36.8267ZM99.7911 28.3652C99.6234 28.0677 98.7446 28.6415 98.3558 28.7169C98.0378 28.7786 97.8827 28.7354 97.4939 28.8108C97.0698 28.8931 97.0598 29.4084 96.7544 29.7244C96.4912 30.0688 96.7354 30.5715 96.2543 30.7382C95.8017 30.8626 96.0623 32.2056 95.5321 32.3084C95.002 32.4113 95.2103 34.2411 95.3749 35.0893C95.5463 35.9728 95.8638 37.2314 96.9947 37.012C98.1256 36.7926 98.8657 34.5588 99.2039 33.4664C99.542 32.374 99.6507 30.666 99.6539 30.1153C99.6924 29.5578 100.001 28.6911 99.7911 28.3652ZM123.491 35.2822C124.039 38.1095 123.289 39.722 123.412 40.3581C123.535 40.9943 123.244 42.5176 122.946 42.8689C122.654 43.2555 122.89 43.9064 121.68 44.4713C120.427 45.0077 118.586 45.9149 117.596 46.1069C116.571 46.3057 114.572 46.5837 112.735 45.6199C110.904 44.6915 111.359 44.1999 110.831 43.9356C110.338 43.6645 110.168 42.5974 110.305 42.1675C110.406 41.7445 111.254 40.4432 111.956 41.0403C112.617 41.609 112.794 41.3911 112.691 42.1813C112.588 42.9714 112.876 43.1355 114.597 43.4985C116.324 43.8968 116.128 43.6414 117.4 43.3946C118.708 43.141 119.926 42.4278 120.641 41.0058C121.313 39.5552 121.409 37.593 121.018 35.5786C120.737 34.1296 120.424 33.2735 120.108 32.9681C119.792 32.6627 119.309 30.7395 118.708 30.856C118.107 30.9726 118.154 31.4035 118.093 32.2222C118.074 33.0693 117.43 33.3409 117.405 33.9692C117.38 34.5974 116.485 35.6513 115.46 35.8501C114.4 36.0558 112.797 36.11 111.337 34.6331C109.841 33.1629 109.631 32.837 109.275 30.9992C108.918 29.1615 109.87 26.8865 110.56 26.0927C111.207 25.2704 112.464 23.9997 113.63 23.7735C114.655 23.5746 115.692 23.8136 116.607 24.186C117.495 24.6007 118.166 24.4704 118.365 25.4953C118.571 26.5555 119.477 27.2597 120.346 28.5215C121.221 29.8186 122.928 32.3843 123.491 35.2822ZM116.293 28.4275C116.102 27.4379 115.396 26.0712 114.477 26.2495C114.018 26.3386 112.727 27.4325 112.391 28.1578C112.09 28.8762 111.832 30.7598 111.997 31.608C112.161 32.4562 112.746 32.6361 113.035 32.8001C113.323 32.9642 113.517 33.5866 114.542 33.3878C115.602 33.1821 115.537 32.278 115.772 31.9758C116.035 31.6313 116.265 30.9266 116.189 30.5379C116.114 30.1491 116.492 29.4524 116.293 28.4275ZM138.626 28.3855C138.694 28.739 138.535 29.4299 137.995 30.0481C137.413 30.6378 136.721 31.7988 134.353 32.2581C131.95 32.7244 131.16 32.621 129.423 31.4177C127.657 30.2567 126.28 29.2038 126.713 28.7898C127.104 28.3472 126.295 26.634 126.116 25.7151C125.938 24.7962 126.439 22.4621 127.305 21.634C128.164 20.7706 130.48 19.4778 131.152 19.3475C132.671 19.0527 133.142 19.4014 133.802 20.1536C134.426 20.9127 134.788 21.8326 134.7 22.3263C134.577 22.8269 134.876 23.6123 134.209 24.145C133.543 24.6778 133.453 25.5386 133.14 26.0028C132.791 26.4738 131.864 28.1205 131.312 28.3009C130.725 28.4882 130.376 28.9592 131.009 29.3865C131.642 29.8137 132.332 30.1566 134.594 29.7178C136.856 29.279 136.125 28.7241 136.867 28.5801C137.609 28.4362 138.564 28.0675 138.626 28.3855ZM131.744 22.0198C131.379 21.6505 131.049 22.4111 130.661 22.4865C130.201 22.5757 129.96 22.8426 129.355 23.6934C128.792 24.5727 128.541 25.1713 128.662 26.1746C128.791 27.2132 129.791 26.3223 129.971 25.7374C130.151 25.1524 130.926 24.232 131.269 23.542C131.612 22.8521 132.066 22.3605 131.744 22.0198ZM159.312 9.63062C159.415 10.1607 158.958 11.0195 158.941 11.4995C158.96 11.9726 158.641 13.3546 158.265 13.6842C157.889 14.0139 157.61 15.7915 157.206 16.1633C156.773 16.5774 155.809 18.4146 155.849 18.8102C155.847 19.1773 155.982 20.2513 155.536 20.4111C155.126 20.564 154.889 21.2334 154.429 21.3225C153.935 21.4185 153.53 20.6536 153.085 20.6299C152.598 20.5777 152.652 19.7237 152.378 19.6303C152.11 19.5723 152.643 18.9187 152.569 18.3464C152.536 17.8026 153.065 16.7466 153.286 16.3737C153.542 15.9939 154.553 14.5877 154.663 13.8329C154.774 13.0781 156.254 11.0674 156.096 10.2545C155.932 9.40634 155.279 8.68948 154.466 8.84717C153.653 9.00486 152.227 9.02486 152.153 9.58926C152.044 10.1605 151.555 10.4754 150.746 11.2191C149.944 11.9982 149.43 12.9413 149.505 13.33C149.574 13.6835 149.64 14.404 149.004 14.5274C148.403 14.644 146.908 14.3105 146.737 13.427C146.572 12.5788 146.968 11.402 147.238 11.0929C147.543 10.777 148.156 9.77797 148.666 9.56911C149.182 9.39559 150.202 7.65758 150.853 7.4213C151.51 7.22035 152.469 7.43769 152.789 7.00887C153.237 6.48193 154.258 7.01735 154.718 6.74466C155.137 6.44348 156.101 6.87973 156.786 7.00371C157.434 7.13455 157.866 8.22433 158.268 8.21959C158.678 8.2502 159.202 9.06516 159.312 9.63062ZM159.526 25.101C159.028 25.7476 159.966 26.0425 159.244 26.2925C158.516 26.5072 158.314 27.1697 157.925 27.2451C157.537 27.3205 156.688 27.4851 156.12 26.8252C155.588 26.1584 154.822 25.4268 154.754 25.0734C154.685 24.72 155.9 23.4209 156.536 23.2974C157.137 23.1809 157.955 23.4257 158.397 23.8165C158.833 24.1721 160.017 24.419 159.526 25.101ZM29.4343 88.8882C29.5577 89.5243 29.3778 90.1093 28.3893 90.1177C27.4008 90.1261 25.8026 90.5829 25.8917 91.0423C25.974 91.4664 27.3374 93.7689 27.7847 94.5622C28.2673 95.3487 28.2789 95.7865 27.7113 96.2633C27.1506 96.7755 27.2877 97.4823 26.9343 97.5508C26.5809 97.6194 26.4369 96.8772 25.9728 96.5639C25.4801 96.2928 24.6309 96.6409 24.5486 96.2168C24.4595 95.7574 25.2048 95.0627 24.7997 94.2978C24.3947 93.533 23.8356 92.5413 23.6188 92.18C23.4088 91.854 23.1557 91.6831 22.4615 92.0745C21.7673 92.4658 20.5625 93.2496 19.5287 93.7802C18.5017 94.3462 17.5306 95.0113 16.9229 95.0925C16.3153 95.1737 16.2593 95.0746 16.1981 95.8932C16.1723 96.705 15.6979 101.821 15.9205 102.401C16.0175 102.712 15.9447 103.093 15.6256 103.339C15.2996 103.548 15.1994 103.788 14.846 103.856C14.4926 103.925 14.2209 103.281 13.9883 103.216C13.791 103.144 13.2699 102.915 13.1945 102.527C13.1122 102.103 13.6228 101.71 13.6202 100.941C13.6244 100.206 13.9279 95.3435 14.0957 93.184C14.2282 91.0314 15.4041 84.2391 15.268 83.3487C15.1605 82.4161 14.5998 80.4713 16.0488 80.1902C17.5685 79.8954 19.096 81.9094 20.2664 83.4058C21.43 84.867 23.7265 88.1986 24.0562 88.5747C24.3927 88.9861 24.8637 89.3348 26.1428 89.1233C27.3866 88.9187 29.3177 88.2874 29.4343 88.8882ZM21.4842 88.927C20.9936 88.2887 18.9561 85.3469 18.4803 84.5958C17.5916 83.228 17.2112 84.2919 17.2993 84.9349C17.3589 85.6201 16.8798 90.3336 16.5976 91.5252C16.3153 92.7167 17.1851 92.4747 17.6741 92.1598C18.1278 91.8517 20.705 90.5816 21.6387 90.2905C22.5655 89.964 21.9679 89.5299 21.4842 88.927ZM40.1587 75.8797C40.8623 76.2932 40.7668 76.9352 40.3417 77.201C39.9234 77.5022 39.7377 77.8682 38.9634 77.4684C38.1891 77.0685 37.0719 77.3586 36.642 77.222C36.1836 77.1275 35.1529 77.1075 34.7098 78.0369C34.2598 78.9309 33.9508 78.6608 33.9148 79.988C33.9074 81.2729 34.024 81.8737 34.2091 82.8279C34.3873 83.7468 34.2718 85.4194 36.2155 85.0423C38.1593 84.6652 40.7619 83.9036 41.4107 84.0345C42.0663 84.2006 41.7794 84.9897 41.7419 85.3637C41.6622 85.7092 41.2808 86.9567 40.7597 86.7277C40.2317 86.4635 40.1404 86.3712 39.0095 86.5906C37.8786 86.8099 38.1582 87.3058 37.3807 87.4566C36.5678 87.6143 35.9533 87.6602 36.0904 88.367C36.2344 89.1092 37.3816 89.73 37.4766 90.4084C37.5293 91.0582 38.2066 91.1469 38.5948 92.3917C38.9829 93.6366 39.4439 94.5006 39.1659 94.9579C38.9233 95.4084 39.3099 95.7001 38.5678 95.8441C37.8609 95.9812 37.018 95.2279 36.4922 94.5965C35.9241 93.9366 35.7205 92.5093 35.6177 91.9791C35.5149 91.449 34.7052 91.056 34.5544 90.2785C34.3967 89.4657 33.7964 88.262 33.4784 88.3237C33.125 88.3922 32.9277 88.3205 32.2103 87.8362C31.493 87.352 31.1618 86.0227 31.8332 85.8925C32.5047 85.7622 32.7748 85.4531 32.2727 84.3771C31.8059 83.2941 31.4657 82.2967 31.2874 81.3778C31.1092 80.4589 31.0934 78.2984 31.4284 77.7567C31.728 77.2218 32.6965 75.7871 33.1559 75.698C33.6154 75.6089 34.5569 75.1695 35.1577 75.0529C36.43 74.8061 37.821 74.793 38.2851 75.1063C38.7562 75.455 39.4551 75.4661 40.1587 75.8797ZM55.0593 81.0933C55.169 81.6587 54.1499 82.0765 53.6974 82.2009C53.2801 82.3186 52.749 82.605 51.9588 82.5016C51.1686 82.3981 50.6876 82.5648 50.4882 82.8602C50.2956 83.1909 49.6036 83.2152 49.3926 83.0727C49.1531 82.9725 48.6309 82.9271 48.7406 83.4926C48.8435 84.0227 49.9031 87.5943 50.143 88.8312C50.3899 90.1035 50.249 91.2676 50.0063 91.7181C49.799 92.1617 49.4356 92.7456 48.9408 92.8416C48.446 92.9376 47.6284 92.6928 47.3273 92.2745C47.0683 91.8847 46.6305 91.8963 46.5619 91.5429C46.4934 91.1894 46.9127 90.7047 47.1976 90.2827C47.4824 89.8608 47.3005 88.3559 47.0399 87.0129C46.7794 85.6699 46.4445 83.7547 45.9498 83.8507C45.455 83.9466 44.7951 84.5147 44.5066 84.3507C44.218 84.1866 43.257 84.3364 43.0993 83.5235C42.9484 82.746 43.0656 82.0266 43.525 81.9374C43.9844 81.8483 45.8121 82.0071 45.6407 81.1236C45.4693 80.2401 44.9134 78.6977 44.7969 78.0969C44.6803 77.4961 44.4034 75.3129 45.1456 75.1689C45.8524 75.0318 46.4659 75.1695 46.6964 75.6015C46.92 75.9981 47.4369 76.9613 47.5877 77.7388L48.0608 80.1774C48.1568 80.6722 48.6722 80.6822 49.054 80.5714C49.4291 80.4253 49.745 80.7307 50.713 80.6163C51.674 80.4665 52.8076 81.0167 53.219 80.6802C53.6304 80.3437 54.9565 80.5632 55.0593 81.0933ZM70.0075 86.5177C70.076 86.8711 69.9167 87.5621 69.3766 88.1803C68.7942 88.77 68.1027 89.931 65.7348 90.3903C63.3316 90.8565 62.5415 90.7531 60.8045 89.5499C59.0391 88.3889 57.6613 87.336 58.0944 86.9219C58.4853 86.4794 57.6762 84.7661 57.4979 83.8473C57.3197 82.9284 57.8203 80.5943 58.6865 79.7662C59.5457 78.9028 61.8619 77.61 62.5334 77.4797C64.0531 77.1849 64.5241 77.5336 65.1834 78.2858C65.8074 79.0448 66.1692 79.9648 66.0817 80.4585C65.9587 80.9591 66.2578 81.7445 65.591 82.2772C64.9243 82.8099 64.8346 83.6708 64.5213 84.135C64.1726 84.606 63.2452 86.2527 62.6935 86.4331C62.1064 86.6203 61.7577 87.0914 62.3907 87.5186C63.0237 87.9459 63.7136 88.2888 65.9754 87.85C68.2372 87.4112 67.5062 86.8563 68.2483 86.7123C68.9905 86.5683 69.9458 86.1997 70.0075 86.5177ZM63.1252 80.1519C62.7602 79.7827 62.431 80.5433 62.0422 80.6187C61.5828 80.7079 61.3412 80.9747 60.7362 81.8255C60.1733 82.7048 59.9228 83.3035 60.044 84.3068C60.1722 85.3454 61.1728 84.4545 61.3527 83.8695C61.5326 83.2846 62.3075 82.3641 62.6504 81.6742C62.9933 80.9843 63.448 80.4927 63.1252 80.1519ZM80.8618 76.2343C80.9303 76.5878 80.3991 76.8742 79.869 76.977C79.3742 77.073 78.2206 77.5535 77.8788 78.0598C77.4948 78.5377 76.7484 79.416 76.6176 80.0647C76.4799 80.6782 75.984 80.9577 76.1554 81.8413C76.3268 82.7248 76.5942 84.1031 76.9149 84.811C77.2003 85.5257 77.2419 86.8745 76.2523 87.0665C75.2628 87.2584 74.5191 86.4493 74.2258 85.8827C73.8972 85.3231 73.4927 83.2379 73.1894 83.1868C72.8508 83.1425 72.7854 82.2384 72.9368 81.6956C73.0882 81.1528 72.7116 80.3458 72.3978 79.6732C72.0486 79.0075 71.576 77.7057 72.7423 77.4795C73.131 77.4041 73.8505 77.5212 73.9544 77.8677C74.0583 78.2143 74.3743 78.5197 74.7651 78.0772C75.156 77.6346 75.4614 77.3187 76.029 76.8418C76.5966 76.365 77.4231 76.278 77.814 75.8355C78.1695 75.3998 78.8764 75.2627 79.3358 75.1735C79.7599 75.0913 80.7932 75.8809 80.8618 76.2343ZM93.748 77.4382C93.8029 77.7209 93.086 78.3734 92.6972 78.4488C92.2732 78.5311 91.7884 78.1117 91.3643 78.194C90.9049 78.2832 89.2064 78.9794 88.9237 79.0342C88.6056 79.0959 86.6813 79.7626 86.3986 79.8174C86.0805 79.8791 85.6828 80.2863 85.1527 80.3892C84.5872 80.4989 83.2791 79.6159 83.1214 78.803C82.9706 78.0255 83.2781 77.3424 83.5962 77.2807C83.8789 77.2259 84.5836 77.4559 85.0441 77.1832C85.5115 76.9458 86.7505 76.3387 87.3513 76.2222C87.9521 76.1056 89.5151 75.6557 89.9539 75.4606C90.3575 75.2723 91.3813 75.257 91.3117 75.0872C91.2489 74.9527 91.5111 74.7918 91.8703 74.9421C92.1941 75.0993 93.0792 75.8811 93.1683 76.3405C93.2575 76.8 93.6863 77.1201 93.748 77.4382ZM117.85 75.3662C118.076 76.5324 117.582 77.7651 117.122 77.8542C116.663 77.9434 115.868 77.4375 115.717 76.66C115.573 75.9178 114.873 74.9536 114.512 74.9868C114.145 74.9847 114.09 73.5652 113.631 73.6544C113.171 73.7435 113.189 73.0799 112.394 72.5741C111.557 72.0397 111.001 71.8176 110.76 73.2212C110.525 74.6602 109.85 75.5247 109.616 76.7801C109.419 78.0286 109.165 80.3147 108.14 80.5135C107.08 80.7192 106.014 79.5693 105.495 78.9732C104.969 78.3418 104.345 75.1257 103.603 75.2697C102.825 75.4206 103.614 75.7075 103.122 76.5731C102.595 77.4455 102.354 78.8491 102.498 79.5913C102.648 80.3688 101.788 81.4158 101.187 81.5324C100.586 81.6489 99.7187 81.5239 99.4582 80.1809C99.1976 78.838 98.6318 75.354 98.301 75.1614C97.9418 75.0111 97.5958 73.7947 97.6697 73.2303C97.7151 72.7081 98.1287 72.0045 98.5527 71.9222C99.3303 71.7714 99.979 71.9022 100.37 73.9167C100.767 75.9664 100.948 75.1979 101.486 73.8101C102.066 72.4508 102.348 72.396 102.914 72.2863C103.444 72.1835 104.368 72.4077 105.006 73.0538C105.652 73.7354 106.232 74.8331 106.334 75.3632C106.437 75.8933 107.02 76.4403 107.394 75.3411C107.732 74.2487 108.335 72.4447 108.728 71.635C109.157 70.8185 110.035 69.1079 110.812 68.9571C111.555 68.8131 113.429 69.4029 114.186 70.4663C114.977 71.5229 115.866 71.7539 116.219 72.8221C116.78 74.7669 117.624 74.1999 117.85 75.3662ZM130.538 69.971C130.867 71.6674 130.383 73.5215 129.819 74.5843C129.248 75.6118 128.095 77.229 127.106 77.421C126.116 77.613 123.953 76.8592 123.48 76.8776C123.014 76.9314 122.608 75.0298 122.101 74.8716C121.593 74.7133 120.937 73.4104 120.8 72.7036C120.663 71.9968 121.198 70.9761 121.231 70.1997C121.299 69.4164 121.599 68.8815 122.058 68.7924C122.517 68.7033 123.52 68.7655 123.609 69.225C123.691 69.6491 123.097 71.1212 123.268 72.0048C123.446 72.9236 124.361 73.4796 124.423 73.7977C124.491 74.1511 125.073 74.8817 126.098 74.6828C127.158 74.4772 127.572 73.7735 127.98 72.6674C128.382 71.526 128.391 71.1942 128.302 70.7348C128.213 70.2753 127.153 69.1607 126.604 68.974C126.061 68.8226 125.186 68.6622 124.798 68.7376C124.409 68.813 123.678 68.2581 123.534 67.516C123.39 66.7738 124.201 65.663 124.59 65.5875C125.049 65.4984 127.26 66.6832 127.831 66.7924C128.431 66.8594 130.209 68.2747 130.538 69.971ZM145.875 63.2918C145.985 63.8573 145.69 64.7946 145.231 64.8837C144.806 64.966 144.333 66.3047 144.085 66.3527C143.838 66.4007 144.224 66.876 143.755 67.2969C143.245 67.6893 143.388 68.4315 143.273 68.7838C143.116 69.1077 142.241 70.2676 142.416 70.6004C142.59 70.9332 142.284 71.4328 142.036 71.4808C141.754 71.5356 142.038 72.4339 141.791 72.4819C141.543 72.5299 141.808 73.1386 141.531 73.4124C141.212 73.6576 140.869 74.3475 140.931 74.6656C140.986 74.9483 140.679 75.4479 140.184 75.5438C139.654 75.6467 138.386 75.1593 137.898 74.1539C137.381 73.1907 136.746 73.1305 136.365 71.921C135.983 70.7115 135.299 69.4508 134.989 69.1807C134.687 68.946 134.519 67.5118 134.217 67.2771C133.908 67.007 133.888 65.5807 134.453 65.471C135.019 65.3613 136.02 65.6071 136.124 65.9537C136.263 66.2934 136.976 66.3752 136.98 66.7776C136.95 67.1869 136.734 67.7788 137.196 68.4592C137.623 69.1465 138.305 69.6376 138.457 70.2316C138.644 70.8187 138.738 71.6806 139.233 71.5846C139.728 71.4886 140.019 69.9653 140.233 69.557C140.483 69.1419 140.589 67.801 140.93 67.4782C141.271 67.1554 141.088 65.8341 141.562 65.6321C142.036 65.4301 141.513 64.248 141.931 64.1304C142.376 63.9706 142.712 63.2453 142.7 62.991C142.687 62.7368 143.145 62.8312 143.317 62.3945C143.489 61.9577 144.126 61.8343 144.596 62.3666C145.066 62.8988 145.772 62.7617 145.875 63.2918ZM151.317 55.2319C151.53 56.3274 150.819 57.1988 150.395 57.2811C149.935 57.3702 149.155 56.7515 148.69 56.6217C148.26 56.4851 147.556 56.0715 147.46 55.5767C147.364 55.0819 147.807 54.1525 148.267 54.0634C148.938 53.9331 149.862 54.1574 150.001 54.4971C150.105 54.8436 151.105 54.1363 151.317 55.2319ZM154.117 69.2839C153.811 69.5999 153.98 70.8505 154.063 71.2746C154.138 71.6634 153.862 71.7535 153.368 71.8495C152.873 71.9455 152.048 71.6654 151.815 70.4638C151.582 69.2622 150.887 67.3802 150.574 66.5241C150.255 65.6326 150.129 64.2269 149.799 63.8508C149.476 63.51 149.266 63.184 149.218 62.9366C149.17 62.6893 149.402 61.6174 149.862 61.5283C150.356 61.4323 151.513 61.7214 151.629 62.3222C151.746 62.923 152.006 64.266 152.377 64.8541C152.755 65.4776 153.222 66.5605 153.345 67.1967C153.475 67.8681 154.422 68.968 154.117 69.2839ZM170.716 66.9805C170.784 67.3339 170.625 68.0249 170.085 68.6431C169.503 69.2328 168.811 70.3937 166.443 70.8531C164.04 71.3193 163.25 71.2159 161.513 70.0127C159.747 68.8516 158.37 67.7987 158.803 67.3847C159.194 66.9421 158.385 65.2289 158.206 64.31C158.028 63.3911 158.529 61.0571 159.395 60.229C160.254 59.3655 162.57 58.0727 163.242 57.9425C164.761 57.6477 165.232 57.9963 165.892 58.7485C166.516 59.5076 166.878 60.4275 166.79 60.9212C166.667 61.4218 166.966 62.2072 166.299 62.74C165.633 63.2727 165.543 64.1335 165.23 64.5977C164.881 65.0687 163.954 66.7155 163.402 66.8959C162.815 67.0831 162.466 67.5541 163.099 67.9814C163.732 68.4087 164.422 68.7515 166.684 68.3128C168.946 67.874 168.215 67.319 168.957 67.1751C169.699 67.0311 170.654 66.6624 170.716 66.9805ZM163.834 60.6147C163.469 60.2454 163.139 61.006 162.751 61.0815C162.291 61.1706 162.05 61.4375 161.445 62.2883C160.882 63.1676 160.631 63.7663 160.752 64.7695C160.881 65.8081 161.881 64.9172 162.061 64.3323C162.241 63.7473 163.016 62.8269 163.359 62.137C163.702 61.447 164.156 60.9554 163.834 60.6147ZM191.402 48.2255C191.505 48.7557 191.048 49.6144 191.031 50.0944C191.05 50.5675 190.731 51.9495 190.355 52.2792C189.979 52.6088 189.7 54.3864 189.296 54.7583C188.863 55.1723 187.899 57.0095 187.939 57.4051C187.937 57.7722 188.072 58.8462 187.626 59.006C187.216 59.1589 186.979 59.8283 186.519 59.9174C186.025 60.0134 185.62 59.2486 185.175 59.2248C184.688 59.1726 184.742 58.3186 184.468 58.2252C184.2 58.1672 184.733 57.5137 184.659 56.9414C184.626 56.3975 185.155 55.3415 185.376 54.9686C185.632 54.5888 186.643 53.1826 186.753 52.4278C186.864 51.673 188.344 49.6623 188.186 48.8495C188.022 48.0013 187.369 47.2844 186.556 47.4421C185.743 47.5998 184.317 47.6198 184.243 48.1842C184.134 48.7554 183.645 49.0703 182.836 49.814C182.034 50.5931 181.52 51.5362 181.595 51.925C181.664 52.2784 181.73 52.9989 181.094 53.1223C180.493 53.2389 178.998 52.9055 178.827 52.0219C178.662 51.1737 179.058 49.997 179.328 49.6879C179.633 49.3719 180.246 48.3729 180.756 48.164C181.272 47.9905 182.292 46.2525 182.943 46.0162C183.6 45.8153 184.559 46.0326 184.879 45.6038C185.327 45.0769 186.348 45.6123 186.808 45.3396C187.227 45.0384 188.191 45.4747 188.876 45.5986C189.524 45.7295 189.956 46.8192 190.358 46.8145C190.768 46.8451 191.292 47.6601 191.402 48.2255ZM191.616 63.6959C191.118 64.3426 192.056 64.6375 191.334 64.8875C190.606 65.1021 190.404 65.7646 190.015 65.84C189.627 65.9155 188.778 66.08 188.21 65.4201C187.678 64.7534 186.912 64.0217 186.844 63.6683C186.775 63.3149 187.99 62.0158 188.626 61.8924C189.227 61.7758 190.045 62.0206 190.487 62.4115C190.923 62.767 192.107 63.0139 191.616 63.6959Z" fill="white"/>
</svg>
