<svg width="199" height="113" viewBox="0 0 199 113" fill="none" xmlns="http://www.w3.org/2000/svg">
<path d="M19.6443 50.6275C20.0162 51.0321 20.0805 52.1197 19.6965 52.5976C19.3125 53.0755 17.8265 54.8673 14.9285 55.4295C12.0306 55.9917 8.42952 54.8201 7.06515 47.7872C6.54409 45.1013 6.5231 41.4015 6.43609 40.575C6.38443 39.7416 5.75309 37.8105 6.95469 37.5774C7.48481 37.4745 7.89307 37.6887 8.15996 37.9303C8.42 38.1365 8.78501 38.5058 8.88099 39.0006C8.97698 39.4953 8.65467 40.2913 8.72902 40.8636C8.79652 41.4006 8.76005 44.048 9.05486 45.5676C9.34282 47.052 10.3613 50.4115 11.4689 51.7735C12.5697 53.1001 13.1056 53.2162 14.3426 52.9762C15.5795 52.7362 16.9974 51.7277 17.7359 50.9977C18.4812 50.3031 19.244 50.2651 19.6443 50.6275ZM32.3194 44.6114C32.6485 46.3078 32.1648 48.1619 31.6009 49.2247C31.0301 50.2522 29.877 51.8694 28.8875 52.0614C27.8979 52.2534 25.7347 51.4996 25.2616 51.518C24.7953 51.5718 24.3897 49.6702 23.8823 49.512C23.3749 49.3537 22.7187 48.0508 22.5816 47.344C22.4445 46.6372 22.9799 45.6165 23.0126 44.8401C23.0807 44.0568 23.3803 43.5219 23.8398 43.4328C24.2992 43.3437 25.3014 43.406 25.3905 43.8654C25.4728 44.2895 24.8783 45.7616 25.0497 46.6452C25.228 47.564 26.1426 48.12 26.2043 48.4381C26.2729 48.7915 26.8546 49.5221 27.8795 49.3233C28.9398 49.1176 29.3533 48.4139 29.7621 47.3078C30.1641 46.1664 30.1731 45.8346 30.084 45.3752C29.9948 44.9157 28.9352 43.8011 28.3855 43.6144C27.8428 43.463 26.9682 43.3026 26.5795 43.378C26.1907 43.4535 25.4597 42.8985 25.3157 42.1564C25.1717 41.4142 25.983 40.3034 26.3717 40.2279C26.8312 40.1388 29.0413 41.3236 29.6125 41.4328C30.2123 41.4998 31.9903 42.9151 32.3194 44.6114ZM50.9775 49.7562C51.526 52.5835 50.7754 54.196 50.8988 54.8321C51.0222 55.4683 50.731 56.9916 50.4324 57.3429C50.1407 57.7295 50.377 58.3804 49.1664 58.9453C47.9137 59.4817 46.0728 60.3889 45.0832 60.5809C44.0583 60.7797 42.0586 61.0576 40.2215 60.0939C38.3912 59.1655 38.8459 58.6739 38.3179 58.4096C37.8252 58.1385 37.6549 57.0714 37.7915 56.6415C37.8928 56.2185 38.7405 54.9172 39.4431 55.5143C40.1034 56.083 40.2812 55.8651 40.1778 56.6553C40.0744 57.4454 40.3629 57.6095 42.0835 57.9724C43.811 58.3707 43.6148 58.1154 44.8871 57.8686C46.1947 57.6149 47.4132 56.9018 48.1274 55.4798C48.7995 54.0292 48.8955 52.067 48.5047 50.0526C48.2236 48.6036 47.9109 47.7475 47.5949 47.4421C47.279 47.1367 46.7959 45.2135 46.1951 45.33C45.5943 45.4466 45.6412 45.8775 45.58 46.6962C45.561 47.5433 44.9169 47.8149 44.8921 48.4431C44.8673 49.0714 43.9716 50.1252 42.9467 50.3241C41.8865 50.5297 40.2835 50.584 38.8235 49.1071C37.3281 47.6369 37.1182 47.3109 36.7617 45.4732C36.4052 43.6355 37.3573 41.3605 38.0468 40.5667C38.694 39.7443 39.951 38.4737 41.1173 38.2474C42.1422 38.0486 43.1786 38.2876 44.0943 38.66C44.9815 39.0746 45.653 38.9444 45.8518 39.9693C46.0575 41.0295 46.9642 41.7337 47.8324 42.9955C48.7075 44.2925 50.4153 46.8582 50.9775 49.7562ZM43.7803 42.9014C43.5884 41.9119 42.8832 40.5452 41.9643 40.7234C41.5049 40.8126 40.2136 41.9065 39.8776 42.6318C39.5769 43.3502 39.3189 45.2338 39.4834 46.082C39.648 46.9302 40.2329 47.1101 40.5215 47.2741C40.81 47.4382 41.0041 48.0606 42.029 47.8618C43.0892 47.6561 43.0238 46.752 43.2586 46.4498C43.5218 46.1053 43.7518 45.4006 43.6764 45.0119C43.601 44.6231 43.9792 43.9263 43.7803 42.9014ZM63.5535 38.5521C63.8826 40.2485 63.3989 42.1025 62.835 43.1654C62.2642 44.1929 61.1111 45.8101 60.1215 46.0021C59.132 46.194 56.9688 45.4402 56.4957 45.4586C56.0294 45.5124 55.6238 43.6109 55.1164 43.4526C54.609 43.2944 53.9528 41.9915 53.8157 41.2846C53.6786 40.5778 54.214 39.5572 54.2467 38.7807C54.3148 37.9974 54.6144 37.4626 55.0738 37.3734C55.5333 37.2843 56.5355 37.3466 56.6246 37.806C56.7069 38.2301 56.1124 39.7023 56.2838 40.5858C56.462 41.5047 57.3767 42.0607 57.4384 42.3787C57.5069 42.7321 58.0887 43.4627 59.1136 43.2639C60.1738 43.0582 60.5874 42.3546 60.9962 41.2485C61.3982 40.107 61.4072 39.7752 61.318 39.3158C61.2289 38.8564 60.1693 37.7418 59.6196 37.555C59.0769 37.4036 58.2023 37.2433 57.8136 37.3187C57.4248 37.3941 56.6937 36.8392 56.5498 36.097C56.4058 35.3548 57.2171 34.244 57.6058 34.1686C58.0653 34.0794 60.2754 35.2642 60.8466 35.3734C61.4463 35.4404 63.2244 36.8557 63.5535 38.5521ZM86.5229 24.1582C86.6258 24.6883 86.1689 25.547 86.152 26.027C86.1705 26.5002 85.8518 27.8821 85.4757 28.2118C85.0996 28.5415 84.8211 30.319 84.4165 30.6909C83.9834 31.105 83.0197 32.9421 83.0598 33.3377C83.0576 33.7049 83.1926 34.7788 82.7469 34.9386C82.3365 35.0916 82.0997 35.7609 81.6402 35.8501C81.1455 35.946 80.7404 35.1812 80.2957 35.1574C79.8089 35.1052 79.8632 34.2512 79.5884 34.1578C79.3204 34.0998 79.8537 33.4463 79.7794 32.874C79.7472 32.3301 80.2758 31.2742 80.4968 30.9012C80.7532 30.5215 81.7639 29.1152 81.8741 28.3604C81.9844 27.6056 83.4646 25.5949 83.3069 24.7821C83.1423 23.9339 82.4899 23.217 81.677 23.3747C80.8642 23.5324 79.4379 23.5524 79.364 24.1168C79.2548 24.6881 78.7658 25.0029 77.9566 25.7467C77.1543 26.5257 76.6405 27.4688 76.716 27.8576C76.7845 28.211 76.851 28.9315 76.2148 29.0549C75.614 29.1715 74.1192 28.8381 73.9478 27.9546C73.7832 27.1064 74.1783 25.9296 74.4484 25.6205C74.7538 25.3045 75.3668 24.3055 75.8763 24.0967C76.3927 23.9231 77.4124 22.1851 78.0633 21.9488C78.7211 21.7479 79.68 21.9652 80.0002 21.5364C80.4481 21.0095 81.4687 21.5449 81.9292 21.2722C82.3475 20.971 83.3122 21.4073 83.9964 21.5313C84.6452 21.6621 85.0766 22.7519 85.4791 22.7471C85.8884 22.7777 86.4132 23.5927 86.5229 24.1582ZM86.7371 39.6285C86.2392 40.2752 87.1765 40.5701 86.4549 40.8201C85.7264 41.0347 85.5249 41.6972 85.1362 41.7727C84.7474 41.8481 83.8992 42.0126 83.3312 41.3527C82.7984 40.686 82.0331 39.9544 81.9645 39.6009C81.896 39.2475 83.1108 37.9484 83.7469 37.825C84.3477 37.7084 85.1653 37.9532 85.6078 38.3441C86.0435 38.6996 87.2282 38.9465 86.7371 39.6285ZM25.6444 82.8791C25.5362 83.2668 24.6527 83.4382 24.4944 83.9456C24.3008 84.4599 23.6352 84.8091 23.1858 84.3829C22.7786 83.9851 22.3772 83.8063 21.529 83.9708C20.6454 84.1422 20.3137 84.1333 20.4919 85.0521C20.677 86.0064 21.2392 88.9043 21.4972 89.4777C21.7551 90.0511 21.2719 90.5849 21.774 91.6609C22.2761 92.737 22.9734 94.2519 23.0968 94.8881C23.2271 95.5595 23.6048 96.183 23.7487 96.9252C23.8859 97.632 23.5377 99.2398 22.9722 99.3495C22.4421 99.4523 21.0918 98.5408 20.9615 97.8693C20.8313 97.1978 19.8455 93.0618 19.528 91.8033C19.2105 90.5447 18.7743 89.0525 18.6668 88.1199C18.5523 87.152 18.5107 85.8032 18.4147 85.3084C18.3256 84.849 18.1932 84.5446 17.5924 84.6612C16.9916 84.7777 14.7208 85.5483 13.9707 85.8405C13.1853 86.1396 13.3884 86.4302 12.3281 86.6359C11.2326 86.8484 9.93709 86.2197 9.79311 85.4775C9.64914 84.7353 9.95455 84.4194 10.4847 84.3165C11.5449 84.1109 11.9474 84.1061 13.6242 83.4874C15.308 82.9041 18.6184 81.8218 19.8907 81.575C21.163 81.3282 23.3631 80.5713 24.5879 81.2138C25.8195 81.8917 25.7947 82.5199 25.6444 82.8791ZM42.3432 104.173C42.5694 105.339 42.6301 105.84 42.4375 106.171C42.2519 106.537 42.073 106.939 41.6843 107.014C41.2602 107.096 40.8678 106.586 40.4938 106.548C40.1198 106.511 39.4784 105.095 39.2949 105.094C39.0691 105.064 38.9193 104.103 38.9932 103.539C39.0249 102.946 38.8988 101.54 38.5903 99.95C38.2818 98.3597 37.1331 94.3287 36.6425 93.6904C36.1589 93.0875 35.8968 90.7914 35.4727 90.8736C35.0839 90.9491 34.4356 91.9549 34.2135 92.5114C33.9561 93.0748 33.2461 93.7626 32.8996 93.8665C32.553 93.9704 32.2935 94.9008 31.7987 94.9968C31.2686 95.0997 30.2764 94.522 30.0222 94.5347C29.7611 94.512 28.8976 93.6527 28.7536 92.9105C28.6096 92.1684 28.0195 90.4493 27.8892 89.7778C27.7521 89.071 27.4937 87.3609 27.8059 87.0803C28.1251 86.8351 27.817 86.3814 28.4885 86.2512C28.8419 86.1826 29.3414 86.4891 29.5957 86.4764C29.8921 86.4923 30.3336 87.0667 30.4296 87.5615C30.5256 88.0562 30.5503 89.885 30.6737 90.5211C30.7971 91.1573 30.9764 91.8926 31.4712 91.7966C31.966 91.7006 32.2999 91.3425 33.1191 90.0834C33.9098 88.8665 34.3424 87.3158 34.3582 87.0193C34.4026 86.6807 34.8631 86.408 35.0751 86.3669C35.2871 86.3257 36.0889 86.8669 36.4423 86.7984C36.7957 86.7298 37.1655 87.5015 37.3711 88.5618C37.57 89.5867 37.7424 90.2866 38.0309 90.4507C38.3126 90.5794 39.0658 92.1935 39.2235 93.0063C39.3743 93.7838 40.791 97.8729 41.0104 99.0038C41.2298 100.135 41.398 101.569 41.6022 101.676C41.8416 101.776 42.1238 103.042 42.3432 104.173ZM54.4327 84.7751C54.5149 85.1992 54.5624 86.7669 53.9995 87.6462C53.4367 88.5255 53.3813 89.563 52.5331 89.7276C51.6849 89.8921 51.2244 90.1648 50.3409 90.3362C49.422 90.5145 48.6888 90.3266 48.4219 90.0851C48.1482 89.8081 47.741 89.4104 47.8712 90.0819C47.9946 90.718 49.5785 93.9678 49.8902 95.0075C50.1951 96.0118 50.837 98.5643 51.088 99.1023C51.3391 99.6404 51.8766 100.71 51.9725 101.204C52.0754 101.734 51.7805 102.672 51.0383 102.816C50.2608 102.967 49.7945 103.02 49.3335 102.156C48.8372 101.299 47.6261 100.727 47.3313 99.2077C47.0365 97.6881 45.4452 95.7232 45.5149 93.436C45.6199 91.142 44.9744 88.0035 44.5466 87.4998C44.161 87.0245 43.5713 86.4422 44.0044 86.0281C44.4306 85.5787 45.206 85.795 45.5594 85.7264C45.9128 85.6579 45.7699 84.7321 46.1529 84.4378C46.5073 84.1857 47.1124 83.3349 47.5238 82.9984C47.8999 82.6687 48.228 82.0917 49.677 81.8106C50.6666 81.6186 52.3724 82.0944 52.8229 82.3371C53.2665 82.5444 53.4685 83.0186 53.9622 83.1062C54.4137 83.1653 54.3435 84.3157 54.4327 84.7751ZM51.8881 85.2688C51.7921 84.774 51.2251 83.9305 50.3062 84.1088C49.5641 84.2528 48.5908 85.285 48.2274 85.8689C47.8639 86.4528 47.4335 87.6365 47.55 88.2373C47.6597 88.8027 48.1171 89.0807 48.3666 88.6656C48.5876 88.2927 48.9547 88.2948 49.8382 88.1234C50.7571 87.9452 51.1206 87.3613 51.3701 86.9461C51.6618 86.5595 51.9841 85.7636 51.8881 85.2688ZM68.2058 82.4699C68.5349 84.1662 68.0512 86.0203 67.4873 87.0832C66.9165 88.1107 65.7634 89.7279 64.7738 89.9198C63.7843 90.1118 61.6211 89.358 61.148 89.3764C60.6817 89.4302 60.2761 87.5287 59.7687 87.3704C59.2613 87.2121 58.6051 85.9093 58.468 85.2024C58.3309 84.4956 58.8663 83.475 58.899 82.6985C58.9671 81.9152 59.2667 81.3804 59.7262 81.2912C60.1856 81.2021 61.1878 81.2644 61.2769 81.7238C61.3592 82.1479 60.7647 83.6201 60.9361 84.5036C61.1144 85.4225 62.029 85.9785 62.0907 86.2965C62.1592 86.6499 62.741 87.3805 63.7659 87.1817C64.8262 86.976 65.2397 86.2724 65.6485 85.1663C66.0505 84.0248 66.0595 83.693 65.9704 83.2336C65.8812 82.7742 64.8216 81.6596 64.2719 81.4728C63.7292 81.3214 62.8546 81.161 62.4659 81.2365C62.0771 81.3119 61.3461 80.7569 61.2021 80.0148C61.0581 79.2726 61.8694 78.1618 62.2581 78.0864C62.7176 77.9972 64.9277 79.182 65.4989 79.2912C66.0987 79.3582 67.8767 80.7735 68.2058 82.4699ZM86.8639 87.6146C87.4124 90.4419 86.6618 92.0544 86.7852 92.6905C86.9086 93.3267 86.6174 94.85 86.3188 95.2013C86.0271 95.5879 86.2634 96.2389 85.0528 96.8037C83.8001 97.3402 81.9592 98.2474 80.9696 98.4393C79.9447 98.6382 77.945 98.9161 76.1079 97.9523C74.2776 97.0239 74.7323 96.5323 74.2043 96.268C73.7116 95.9969 73.5413 94.9298 73.6779 94.4999C73.7792 94.0769 74.6269 92.7756 75.3295 93.3727C75.9898 93.9414 76.1676 93.7235 76.0642 94.5137C75.9608 95.3039 76.2493 95.4679 77.9699 95.8309C79.6974 96.2292 79.5012 95.9739 80.7735 95.727C82.0811 95.4734 83.2996 94.7603 84.0138 93.3382C84.6859 91.8877 84.7819 89.9254 84.3911 87.911C84.11 86.462 83.7973 85.6059 83.4813 85.3005C83.1654 84.9951 82.6823 83.0719 82.0815 83.1884C81.4807 83.305 81.5276 83.7359 81.4664 84.5546C81.4474 85.4017 80.8033 85.6733 80.7785 86.3016C80.7537 86.9298 79.858 87.9837 78.8331 88.1825C77.7729 88.3882 76.1699 88.4425 74.7099 86.9655C73.2145 85.4954 73.0046 85.1694 72.6481 83.3316C72.2916 81.4939 73.2437 79.2189 73.9332 78.4251C74.5804 77.6028 75.8374 76.3321 77.0037 76.1059C78.0286 75.907 79.065 76.146 79.9807 76.5184C80.8679 76.9331 81.5394 76.8028 81.7382 77.8277C81.9439 78.8879 82.8506 79.5921 83.7188 80.8539C84.5939 82.151 86.3017 84.7167 86.8639 87.6146ZM79.6667 80.7599C79.4748 79.7703 78.7696 78.4036 77.8507 78.5819C77.3913 78.671 76.1 79.7649 75.764 80.4902C75.4633 81.2086 75.2053 83.0922 75.3698 83.9404C75.5344 84.7886 76.1193 84.9685 76.4079 85.1325C76.6964 85.2966 76.8905 85.919 77.9154 85.7202C78.9756 85.5145 78.9102 84.6104 79.145 84.3082C79.4082 83.9638 79.6382 83.2591 79.5628 82.8703C79.4874 82.4815 79.8656 81.7848 79.6667 80.7599ZM98.7031 73.1797C98.7717 73.5331 98.2405 73.8195 97.7104 73.9224C97.2156 74.0183 96.062 74.4988 95.7202 75.0052C95.3362 75.4831 94.5898 76.3613 94.4589 77.0101C94.3213 77.6235 93.8254 77.9031 93.9968 78.7866C94.1682 79.6702 94.4356 81.0485 94.7563 81.7563C95.0416 82.4711 95.0833 83.8198 94.0937 84.0118C93.1042 84.2038 92.3604 83.3946 92.0672 82.8281C91.7386 82.2684 91.3341 80.1833 91.0308 80.1321C90.6921 80.0878 90.6268 79.1837 90.7782 78.6409C90.9296 78.0982 90.553 77.2911 90.2391 76.6186C89.89 75.9529 89.4174 74.6511 90.5837 74.4248C90.9724 74.3494 91.6919 74.4665 91.7958 74.8131C91.8997 75.1596 92.2156 75.4651 92.6065 75.0225C92.9974 74.58 93.3028 74.264 93.8704 73.7872C94.438 73.3104 95.2645 73.2234 95.6554 72.7808C96.0109 72.3451 96.7177 72.208 97.1772 72.1189C97.6013 72.0366 98.6346 72.8263 98.7031 73.1797ZM118.051 80.281C118.154 80.8111 117.683 81.5991 117.153 81.7019C116.623 81.8048 115.547 80.9866 115.033 80.793C114.519 80.5994 113.744 80.1996 113.557 79.6125C113.377 79.0608 112.412 78.6245 111.976 78.269C111.583 77.9419 111.382 77.2842 110.993 77.3596C110.604 77.435 110.185 77.9197 110.258 78.6756C110.367 79.4246 109.657 80.1124 109.507 80.4716C109.399 80.8593 108.323 82.4982 106.733 82.8067C105.142 83.1152 104.062 81.8946 103.646 81.8287C103.23 81.7627 103.157 80.8233 102.835 80.4825C102.47 80.1133 102.017 79.101 101.838 78.1822C101.653 77.228 102.053 75.3169 102.377 74.1538C102.695 72.9554 104.159 71.2412 104.365 70.9811C104.614 70.7496 105.425 70.7754 105.633 70.3318C105.805 69.8951 106.663 70.3519 106.856 70.0212C107.091 69.719 107.359 69.777 107.641 69.7221C108.242 69.6056 109.419 70.0007 109.933 70.1943C110.441 70.3526 111.427 70.7113 111.626 71.7362C111.818 72.7257 111.944 74.1315 112.188 74.6341C112.432 75.1368 113.175 76.1296 113.94 76.8612C114.712 77.6282 115.378 78.5993 116.187 78.9923C117.032 79.3784 117.948 79.7508 118.051 80.281ZM108.928 71.8194C108.761 71.5219 107.882 72.0958 107.493 72.1712C107.175 72.2329 107.02 72.1897 106.631 72.2651C106.207 72.3474 106.197 72.8627 105.892 73.1786C105.628 73.5231 105.873 74.0258 105.392 74.1924C104.939 74.3169 105.199 75.6599 104.669 75.7627C104.139 75.8656 104.348 77.6954 104.512 78.5436C104.684 79.4271 105.001 80.6857 106.132 80.4663C107.263 80.2469 108.003 78.013 108.341 76.9206C108.679 75.8282 108.788 74.1203 108.791 73.5696C108.83 73.0121 109.138 72.1454 108.928 71.8194ZM129.118 70.2862C129.201 70.7103 129.248 72.278 128.685 73.1573C128.122 74.0366 128.067 75.0741 127.219 75.2386C126.371 75.4032 125.91 75.6759 125.027 75.8473C124.108 76.0255 123.374 75.8377 123.108 75.5961C122.834 75.3192 122.427 74.9215 122.557 75.593C122.68 76.2291 124.264 79.4789 124.576 80.5186C124.881 81.5229 125.523 84.0754 125.774 84.6134C126.025 85.1515 126.562 86.2207 126.658 86.7155C126.761 87.2456 126.466 88.1829 125.724 88.3269C124.947 88.4777 124.48 88.5315 124.019 87.6675C123.523 86.8103 122.312 86.2385 122.017 84.7188C121.722 83.1991 120.131 81.2343 120.201 78.9471C120.306 76.6531 119.66 73.5146 119.232 73.0109C118.847 72.5356 118.257 71.9533 118.69 71.5392C119.116 71.0898 119.892 71.3061 120.245 71.2375C120.599 71.169 120.456 70.2432 120.839 69.9489C121.193 69.6968 121.798 68.846 122.21 68.5095C122.586 68.1798 122.914 67.6028 124.363 67.3217C125.352 67.1297 127.058 67.6055 127.509 67.8482C127.952 68.0555 128.154 68.5297 128.648 68.6173C129.099 68.6764 129.029 69.8268 129.118 70.2862ZM126.574 70.7799C126.478 70.2851 125.911 69.4416 124.992 69.6199C124.25 69.7639 123.277 70.7961 122.913 71.38C122.55 71.9639 122.119 73.1476 122.236 73.7484C122.345 74.3138 122.803 74.5918 123.052 74.1767C123.273 73.8038 123.64 73.8059 124.524 73.6345C125.443 73.4562 125.806 72.8723 126.056 72.4572C126.347 72.0706 126.67 71.2746 126.574 70.7799ZM149.531 72.3402C149.627 72.835 148.801 72.922 148.412 72.9974C147.988 73.0797 147.574 72.6466 146.798 72.4303C146.03 72.2494 145.64 71.3717 145.175 71.0583C144.711 70.745 144.493 69.4305 143.768 69.0945C143.042 68.7585 142.559 68.1556 141.817 68.2995C141.039 68.4504 140.413 69.1951 140.097 70.21C139.787 71.2602 139.35 72.4085 139.48 73.08C139.617 73.7868 139.752 74.8607 139.285 75.0981C138.818 75.3354 138.78 75.7094 138.285 75.8054C137.791 75.9014 136.689 75.895 136.525 75.0468C136.36 74.1987 134.87 71.8107 134.442 70.1703C134.02 68.5651 131.848 62.0924 131.453 60.8122C131.065 59.5674 130.819 58.1115 130.709 57.5461C130.606 57.0159 131.521 56.4352 131.839 56.3735C132.475 56.2501 133.302 57.2998 133.412 57.8653C133.514 58.3954 133.556 59.7441 133.847 60.6778C134.138 61.6114 136.386 67.3362 136.474 67.9792C136.526 68.629 137.009 70.7358 137.327 70.6741C137.68 70.6055 137.855 69.6181 138.113 69.0548C138.37 68.4914 139.508 65.8504 141.275 65.5076C143.007 65.1716 144.561 66.1902 145.001 66.9482C145.477 67.6994 146.027 67.8861 146.242 68.6146C146.492 69.3362 147.658 70.2466 148.115 70.7082C148.564 71.1344 149.435 71.8455 149.531 72.3402ZM152.869 55.3375C153.081 56.433 152.37 57.3044 151.946 57.3867C151.486 57.4758 150.706 56.8571 150.241 56.7273C149.811 56.5907 149.108 56.1771 149.012 55.6823C148.916 55.1875 149.359 54.2581 149.818 54.169C150.49 54.0387 151.413 54.2629 151.552 54.6026C151.656 54.9492 152.656 54.2419 152.869 55.3375ZM155.668 69.3895C155.363 69.7055 155.532 70.9561 155.614 71.3802C155.689 71.769 155.414 71.8591 154.919 71.9551C154.424 72.0511 153.6 71.771 153.367 70.5694C153.133 69.3678 152.438 67.4857 152.125 66.6296C151.806 65.7382 151.68 64.3325 151.35 63.9564C151.027 63.6156 150.817 63.2896 150.769 63.0422C150.721 62.7949 150.954 61.723 151.413 61.6339C151.908 61.5379 153.064 61.827 153.181 62.4278C153.297 63.0286 153.558 64.3716 153.928 64.9597C154.306 65.5832 154.773 66.6661 154.896 67.3023C155.027 67.9737 155.973 69.0736 155.668 69.3895ZM172.267 67.0861C172.336 67.4395 172.176 68.1305 171.636 68.7487C171.054 69.3384 170.362 70.4993 167.994 70.9587C165.591 71.4249 164.801 71.3215 163.064 70.1182C161.299 68.9572 159.921 67.9043 160.354 67.4903C160.745 67.0477 159.936 65.3345 159.758 64.4156C159.579 63.4967 160.08 61.1627 160.946 60.3346C161.805 59.4711 164.122 58.1783 164.793 58.0481C166.313 57.7533 166.784 58.1019 167.443 58.8541C168.067 59.6132 168.429 60.5331 168.341 61.0268C168.218 61.5274 168.517 62.3128 167.851 62.8456C167.184 63.3783 167.094 64.2391 166.781 64.7033C166.432 65.1743 165.505 66.8211 164.953 67.0014C164.366 67.1887 164.017 67.6597 164.65 68.087C165.283 68.5143 165.973 68.8571 168.235 68.4183C170.497 67.9796 169.766 67.4246 170.508 67.2807C171.25 67.1367 172.205 66.768 172.267 67.0861ZM165.385 60.7203C165.02 60.351 164.691 61.1116 164.302 61.1871C163.842 61.2762 163.601 61.5431 162.996 62.3939C162.433 63.2732 162.182 63.8718 162.304 64.8751C162.432 65.9137 163.433 65.0228 163.612 64.4379C163.792 63.8529 164.567 62.9325 164.91 62.2426C165.253 61.5526 165.708 61.061 165.385 60.7203ZM192.953 48.3311C193.056 48.8613 192.599 49.72 192.583 50.2C192.601 50.6731 192.282 52.0551 191.906 52.3848C191.53 52.7144 191.252 54.492 190.847 54.8639C190.414 55.2779 189.45 57.1151 189.49 57.5107C189.488 57.8778 189.623 58.9518 189.177 59.1116C188.767 59.2645 188.53 59.9339 188.071 60.023C187.576 60.119 187.171 59.3542 186.726 59.3304C186.239 59.2782 186.294 58.4242 186.019 58.3308C185.751 58.2728 186.284 57.6193 186.21 57.0469C186.178 56.5031 186.706 55.4471 186.927 55.0742C187.184 54.6944 188.194 53.2882 188.305 52.5334C188.415 51.7786 189.895 49.7679 189.737 48.955C189.573 48.1069 188.92 47.39 188.108 47.5477C187.295 47.7054 185.868 47.7254 185.795 48.2898C185.685 48.861 185.196 49.1759 184.387 49.9196C183.585 50.6987 183.071 51.6418 183.147 52.0306C183.215 52.384 183.282 53.1045 182.645 53.2279C182.045 53.3445 180.55 53.0111 180.378 52.1275C180.214 51.2793 180.609 50.1026 180.879 49.7935C181.184 49.4775 181.797 48.4785 182.307 48.2696C182.823 48.0961 183.843 46.3581 184.494 46.1218C185.152 45.9209 186.111 46.1382 186.431 45.7094C186.879 45.1825 187.899 45.7179 188.36 45.4452C188.778 45.144 189.743 45.5803 190.427 45.7042C191.076 45.8351 191.507 46.9248 191.91 46.9201C192.319 46.9507 192.844 47.7657 192.953 48.3311ZM193.168 63.8015C192.67 64.4482 193.607 64.743 192.885 64.9931C192.157 65.2077 191.955 65.8702 191.567 65.9456C191.178 66.0211 190.33 66.1856 189.762 65.5257C189.229 64.859 188.464 64.1273 188.395 63.7739C188.327 63.4205 189.541 62.1214 190.177 61.998C190.778 61.8814 191.596 62.1262 192.038 62.5171C192.474 62.8726 193.659 63.1195 193.168 63.8015Z" fill="white"/>
</svg>
