<svg width="205" height="94" viewBox="0 0 205 94" fill="none" xmlns="http://www.w3.org/2000/svg">
<path d="M19.5242 12.9594C19.4537 13.3369 18.9809 14.6484 18.2284 15.1915C17.4759 15.7345 17.0912 16.5742 16.3363 16.4332C15.5813 16.2922 15.1116 16.3672 14.3252 16.2203C13.5073 16.0676 12.9625 15.6729 12.8208 15.386C12.6849 15.0676 12.4782 14.6058 12.3666 15.2035C12.2608 15.7697 12.5088 18.9737 12.4269 19.935C12.3509 20.8648 12.0479 23.1846 12.0797 23.7114C12.1115 24.2382 12.2066 25.2977 12.1244 25.7381C12.0363 26.2099 11.4863 26.8885 10.8258 26.7651C10.1337 26.6359 9.73067 26.528 9.63177 25.6632C9.50141 24.7924 8.68697 23.9242 8.9396 22.5716C9.19222 21.2189 8.51841 19.0748 9.32304 17.2068C10.1591 15.3446 10.6505 12.5391 10.4614 11.983C10.2979 11.4641 10.0006 10.7901 10.4939 10.5892C10.993 10.3569 11.5634 10.789 11.8779 10.8477C12.1925 10.9065 12.3767 10.0945 12.7894 9.97626C13.1648 9.8836 13.9429 9.37785 14.3929 9.23403C14.8115 9.08434 15.2713 8.71445 16.561 8.95533C17.4417 9.11982 18.6965 10.0704 18.9897 10.4181C19.2887 10.7344 19.3008 11.1924 19.6804 11.426C20.0344 11.6223 19.6006 12.5505 19.5242 12.9594ZM17.2594 12.5364C17.3416 12.096 17.1483 11.2135 16.3305 11.0608C15.6699 10.9374 14.5282 11.4729 14.037 11.8369C13.5458 12.2009 12.8034 13.0389 12.7035 13.5736C12.6095 14.0769 12.8968 14.4561 13.2386 14.1944C13.5432 13.9583 13.846 14.08 14.6324 14.2269C15.4502 14.3796 15.9414 14.0156 16.2833 13.7539C16.6507 13.5296 17.1771 12.9768 17.2594 12.5364ZM31.6635 15.5522C31.3815 17.062 30.3761 18.4368 29.5627 19.1313C28.7553 19.7943 27.2738 20.7547 26.393 20.5902C25.5123 20.4257 23.9702 19.096 23.573 18.9567C23.1699 18.8488 23.4557 17.1443 23.0879 16.8478C22.7201 16.5512 22.6032 15.2598 22.7207 14.6307C22.8382 14.0015 23.6142 13.3326 23.8949 12.7014C24.207 12.0761 24.6294 11.7318 25.0383 11.8082C25.4472 11.8846 26.2554 12.2634 26.179 12.6723C26.1085 13.0498 25.1362 14.0726 24.9893 14.859C24.8366 15.6769 25.4111 16.4353 25.3583 16.7184C25.2995 17.0329 25.5419 17.8269 26.4541 17.9973C27.3978 18.1736 27.9695 17.7269 28.6687 16.946C29.3739 16.1337 29.4896 15.8623 29.566 15.4534C29.6424 15.0445 29.1304 13.7769 28.737 13.443C28.3378 13.1406 27.6671 12.7223 27.3211 12.6577C26.9751 12.5931 26.552 11.8956 26.6753 11.235C26.7987 10.5744 27.8322 9.92105 28.1783 9.98567C28.5872 10.062 30.0273 11.7634 30.4639 12.0402C30.9378 12.2915 31.9455 14.0423 31.6635 15.5522ZM46.1552 23.4672C46.0906 23.8132 45.7664 23.9806 45.4204 23.9159C45.0743 23.8513 44.2267 23.3349 43.619 22.9284C43.0742 22.5337 42.4091 21.5631 42.2435 20.8811C42.145 20.5372 42.1014 20.0733 42.0461 19.6723C41.9396 19.1967 41.8096 18.8469 41.5894 18.8058C41.2434 18.7411 40.7484 19.2998 40.5127 19.5162C40.2711 19.764 40.1532 19.8722 39.8349 20.0081C39.7229 20.0848 39.5794 20.1557 39.4418 20.1951C39.1923 20.3113 38.8995 20.4844 38.8152 20.7617C38.6876 21.0959 37.194 21.5983 36.7536 21.516C36.3762 21.4455 35.2451 20.3553 35.1051 19.7107L35.0535 19.1151C35.0691 18.8576 35.0532 18.5942 35.0373 18.3308C35.0369 17.8098 34.9992 17.3145 34.8537 17.2222C34.6628 17.0238 35.1789 15.6553 35.54 14.9415C35.7364 14.5875 35.978 14.3396 36.1764 14.1488C36.3375 13.9836 36.5673 13.7986 36.6458 13.5529C36.7536 13.1498 37.1072 12.8252 37.3589 12.8722C37.8307 12.9603 38.4543 13.6302 38.4014 13.9133C38.3721 14.0706 38.2739 14.2476 38.1325 14.4816L37.6279 15.2663C37.3158 15.8916 37.1876 18.1464 37.8797 18.2757C38.2257 18.3403 38.5382 18.2359 38.7504 18.1453L39.1002 18.0153C39.1749 17.9642 39.2378 17.9759 39.3007 17.9877C39.4894 18.0229 39.7684 17.7495 40.0276 17.4073L40.3418 16.9451C40.4656 16.8054 40.5578 16.6599 40.6325 16.6087C40.8309 16.4179 41.1589 16.056 41.5125 15.7314C41.8229 15.4638 42.1019 15.1904 42.3221 15.2315C42.6995 15.302 43.4607 15.9325 43.4946 16.6224C43.5223 16.8229 43.5755 17.0607 43.6544 17.3359C43.7076 17.5737 43.8179 17.8547 43.8967 18.1299C44.0602 18.6487 44.2238 19.1675 44.2476 19.5626C44.2266 20.3725 44.9902 21.6871 45.4134 22.3846C45.561 22.6401 45.7577 22.807 45.9485 23.0054C46.1137 23.1665 46.1846 23.3099 46.1552 23.4672ZM57.8213 17.4426C57.7626 17.7572 57.2299 17.8205 56.7581 17.7323C56.3177 17.6501 55.207 17.6705 54.7591 17.9775C54.2855 18.2472 53.3816 18.7294 53.0616 19.223C52.7474 19.6852 52.2461 19.7544 52.0993 20.5408C51.9524 21.3272 51.7233 22.554 51.7572 23.2439C51.7596 23.928 51.3535 25.0566 50.4728 24.8921C49.592 24.7276 49.2414 23.8158 49.184 23.2516C49.0952 22.6816 49.4418 20.8257 49.2078 20.6843C48.9423 20.5371 49.1835 19.7683 49.486 19.3691C49.7884 18.9698 49.7407 18.1796 49.7009 17.5211C49.6297 16.8567 49.6642 15.6262 50.7022 15.82C51.0482 15.8847 51.6048 16.2165 51.5775 16.5369C51.5502 16.8573 51.7116 17.213 52.1793 16.9748C52.647 16.7367 53.0027 16.5752 53.6276 16.3664C54.2526 16.1576 54.9643 16.3556 55.432 16.1174C55.8682 15.8734 56.4974 15.9909 56.9063 16.0672C57.2838 16.1377 57.8801 17.1281 57.8213 17.4426ZM67.7494 36.9733C67.7083 37.1935 67.3882 37.6871 67.064 37.8544C66.7712 38.0276 66.2742 38.4231 65.9282 38.3585C65.5507 38.288 64.7124 37.0246 64.9239 35.8922C65.1295 34.7912 65.1443 33.4918 65.4494 31.3352C65.7546 29.1786 66.3424 26.5539 65.902 26.4716C65.4302 26.3835 64.5204 26.8972 64.0037 27.2239C63.4928 27.5191 62.958 27.4192 62.5768 27.5434C62.164 27.6616 61.8478 27.9606 60.9984 27.802C60.1491 27.6434 59.0537 26.8854 58.8017 26.3174C58.5438 25.781 58.0791 24.7827 58.1908 24.185C58.2965 23.6188 59.2211 21.8058 60.3075 20.8693C61.4253 19.9387 62.2798 19.024 63.0599 18.6814C63.8774 18.3133 65.6009 17.626 66.4188 17.7787C67.4253 17.9667 68.8039 18.7776 68.6453 19.6269C68.4867 20.4762 68.3809 21.0424 68.6447 21.5475C68.9085 22.0525 68.7775 23.1023 68.6189 23.9516C68.4661 24.7694 68.5595 26.1867 68.395 27.0674C68.2305 27.9482 67.9815 31.5477 67.676 33.1834C67.3705 34.8191 67.2181 36.1579 67.4836 36.3051C67.7864 36.4268 67.7905 36.7531 67.7494 36.9733ZM66.206 22.7522C66.8009 21.6588 66.2212 21.9738 66.2955 21.4017C66.3442 20.7923 66.6878 20.1728 66.1216 20.0671C65.0521 19.8673 63.5253 20.7215 63.3231 21.107C63.0894 21.4865 62.3055 22.0237 61.7652 22.4762C61.225 22.9287 60.5396 23.8099 60.4749 24.1559C60.4044 24.5334 60.7017 25.2074 61.6769 25.3895C62.652 25.5717 63.3634 25.2488 63.9804 24.9083C64.5974 24.5677 65.6427 23.8515 66.206 22.7522ZM84.3387 30.5986C84.2741 30.9446 83.9499 31.1119 83.6039 31.0473C83.2578 30.9827 82.4102 30.4663 81.8025 30.0598C81.2577 29.6651 80.5926 28.6945 80.427 28.0125C80.3285 27.6685 80.2849 27.2047 80.2296 26.8037C80.1231 26.3281 79.9931 25.9782 79.7729 25.9371C79.4269 25.8725 78.9319 26.4311 78.6962 26.6475C78.4546 26.8954 78.3367 27.0036 78.0184 27.1394C77.9064 27.2162 77.7629 27.287 77.6254 27.3265C77.3758 27.4426 77.083 27.6158 76.9987 27.893C76.8712 28.2273 75.3775 28.7296 74.9372 28.6474C74.5597 28.5769 73.4286 27.4867 73.2886 26.842L73.237 26.2464C73.2526 25.9889 73.2367 25.7255 73.2208 25.4621C73.2204 24.9412 73.1827 24.4459 73.0372 24.3536C72.8463 24.1552 73.3624 22.7866 73.7236 22.0728C73.9199 21.7189 74.1615 21.471 74.3599 21.2802C74.521 21.1149 74.7508 20.93 74.8293 20.6842C74.9371 20.2812 75.2907 19.9566 75.5424 20.0036C76.0142 20.0917 76.6378 20.7616 76.585 21.0447C76.5556 21.202 76.4574 21.3789 76.316 21.613L75.8114 22.3977C75.4993 23.023 75.3712 25.2778 76.0632 25.407C76.4092 25.4717 76.7217 25.3673 76.9339 25.2767L77.2837 25.1467C77.3584 25.0955 77.4213 25.1073 77.4842 25.119C77.673 25.1543 77.9519 24.8808 78.2111 24.5386L78.5253 24.0764C78.6491 23.9368 78.7414 23.7913 78.816 23.7401C79.0144 23.5493 79.3424 23.1873 79.6961 22.8627C80.0064 22.5952 80.2854 22.3217 80.5056 22.3629C80.8831 22.4334 81.6442 23.0638 81.6782 23.7538C81.7058 23.9543 81.7591 24.1921 81.8379 24.4672C81.8911 24.7051 82.0014 24.9861 82.0802 25.2612C82.2438 25.7801 82.4073 26.2989 82.4312 26.694C82.4101 27.5039 83.1737 28.8185 83.5969 29.516C83.7445 29.7714 83.9412 29.9384 84.132 30.1368C84.2972 30.2979 84.3681 30.4413 84.3387 30.5986ZM95.5587 27.4856C95.2767 28.9955 94.2712 30.3702 93.4579 31.0647C92.6505 31.7277 91.169 32.6881 90.2882 32.5236C89.4074 32.3591 87.8653 31.0294 87.4682 30.8901C87.0651 30.7822 87.3509 29.0777 86.9831 28.7812C86.6153 28.4846 86.4984 27.1932 86.6159 26.5641C86.7334 25.935 87.5094 25.2661 87.79 24.6348C88.1021 24.0095 88.5245 23.6652 88.9335 23.7416C89.3424 23.818 90.1506 24.1968 90.0742 24.6057C90.0037 24.9832 89.0314 26.0061 88.8845 26.7925C88.7318 27.6103 89.3063 28.3687 89.2534 28.6518C89.1947 28.9664 89.437 29.7603 90.3493 29.9307C91.2929 30.107 91.8647 29.6603 92.5639 28.8794C93.269 28.0671 93.3848 27.7957 93.4612 27.3868C93.5376 26.9779 93.0256 25.7103 92.6322 25.3764C92.2329 25.074 91.5623 24.6558 91.2163 24.5911C90.8703 24.5265 90.4471 23.829 90.5705 23.1684C90.6939 22.5078 91.7274 21.8545 92.0734 21.9191C92.4824 21.9955 93.9225 23.6968 94.3591 23.9736C94.833 24.2249 95.8407 25.9757 95.5587 27.4856ZM104.496 19.6491C104.314 20.6243 103.441 21.1124 103.064 21.0419C102.655 20.9655 102.212 20.1992 101.87 19.94C101.559 19.6866 101.112 19.1149 101.195 18.6745C101.277 18.2341 101.947 17.6105 102.356 17.6869C102.953 17.7985 103.644 18.2855 103.648 18.6118C103.621 18.9323 104.678 18.674 104.496 19.6491ZM102.221 32.1804C101.865 32.3419 101.596 33.4311 101.526 33.8085C101.461 34.1546 101.204 34.139 100.763 34.0568C100.323 33.9745 99.7328 33.4737 99.9325 32.4042C100.132 31.3347 100.172 29.5517 100.193 28.7418C100.22 27.9004 100.575 26.6971 100.426 26.2786C100.27 25.8914 100.203 25.5533 100.244 25.3332C100.285 25.113 100.827 24.3027 101.236 24.3791C101.676 24.4613 102.538 25.0779 102.438 25.6127C102.338 26.1475 102.115 27.3428 102.229 27.9501C102.338 28.5889 102.37 29.6366 102.264 30.2028C102.153 30.8005 102.576 32.019 102.221 32.1804ZM132.07 25.3524C132.005 25.6985 130.924 25.5616 130.689 26.8199C130.448 28.1096 129.937 30.3253 129.676 32.0672C129.385 33.8031 127.999 39.3062 125.168 38.7775C122.305 38.2429 121.479 34.996 120.969 33.3707C120.459 31.7454 120.162 31.5923 120.197 30.8826C120.238 30.1415 120.318 29.538 120.003 29.4792C119.689 29.4205 119.054 30.3763 118.784 31.3023C118.519 32.1969 117.474 35.3547 117.191 35.8227C116.939 36.2966 116.615 36.464 116.94 36.8176C117.227 37.1968 116.6 37.7633 116.384 38.0485C116.137 38.3278 115.942 38.324 115.565 38.2535C115.156 38.1772 114.334 37.1772 114.475 36.4222C114.616 35.6673 115.632 33.7087 115.897 32.8141C116.136 31.8822 117.332 30.1849 117.654 28.8125C117.944 27.4344 118.379 26.1484 118.607 25.8003C118.872 25.4267 119.239 24.6814 119.9 24.8048C120.403 24.8988 120.593 24.5762 121.105 25.8438C121.592 27.074 122.444 28.9585 122.661 30.2361C122.884 31.4822 123.058 32.8169 123.468 33.9351C123.903 35.0906 123.994 35.3029 124.906 35.4732C125.787 35.6377 126.35 34.0176 126.766 32.6629C127.144 31.3338 128.931 25.2544 129.077 24.468C129.218 23.7131 129.297 23.4673 129.922 23.2585C130.572 23.087 131.166 22.8723 131.391 23.7607C131.647 24.6549 132.135 25.0064 132.07 25.3524ZM144.063 36.8375C143.757 38.4732 143.046 39.317 142.314 39.9289C141.618 40.5151 140.596 41.1056 139.338 40.8706C136.853 40.4065 136.282 38.4117 135.587 37.5983C134.924 36.7909 134.795 34.5205 135.018 33.3252C135.241 32.1299 135.767 30.0144 136.252 29.6818C136.737 29.3492 136.796 28.5138 137.6 28.5663C138.435 28.6246 139.357 28.5689 139.38 27.9222C139.403 27.2755 139.873 26.6795 140.596 26.8146C141.225 26.9321 141.725 27.2207 141.944 28.1405C142.2 29.0348 143.26 29.9815 143.357 30.6832C143.454 31.3849 144.424 32.6403 144.094 33.36C143.796 34.0856 144.368 35.2017 144.063 36.8375ZM142.414 33.9903C142.707 32.4175 141.856 32.0957 141.425 30.7455C141.267 30.1952 140.993 29.9163 140.679 29.8575C140.364 29.7988 140.3 30.6657 139.998 31.065C139.695 31.4643 139.162 31.0066 138.791 30.9047C138.393 30.7654 138.01 31.2472 137.744 31.9787C137.477 32.7101 137.493 34.0154 137.264 35.2422C137.029 36.5004 137.8 36.9048 137.893 37.2802C138.011 37.6929 137.946 38.0389 139.268 38.2857C140.62 38.5383 140.506 37.931 141.351 37.2424C142.221 36.5911 142.114 35.5945 142.414 33.9903ZM162.569 31.7322C162.418 32.1923 162.324 32.6956 161.915 32.6193C161.506 32.5429 161.199 32.0949 161.141 33.4513C161.089 34.7763 161.245 36.2052 160.858 38.2813C160.47 40.3574 159.703 42.7208 158.851 43.7987C157.973 44.8392 156.448 45.8565 155.064 45.598C153.711 45.3454 152.419 44.4205 152.061 43.3769C151.702 42.3333 151.03 42.2729 150.699 40.9089C150.33 39.5705 149.663 35.4743 150.127 32.9893C150.591 30.5043 151.873 28.6929 152.628 28.8339C153.163 28.9338 153.23 29.2719 153.323 29.6472C153.447 30.0285 153.614 30.8737 153.161 31.2121C152.738 31.5564 152.763 32.9933 152.366 33.8959C151.939 34.7926 152.321 36.7522 152.405 37.8745C152.519 39.0028 152.599 40.8407 153.16 41.4988C153.689 42.1511 153.668 42.961 154.958 43.2019C156.279 43.4486 157.816 42.3683 158.644 37.933C159.472 33.4977 159.129 31.1548 159.057 30.4904C158.992 29.7946 158.555 29.5177 159.396 29.0237C160.243 28.4983 160.336 28.8737 160.908 29.4689C161.481 30.0641 161.969 30.4156 162.366 30.5549C162.763 30.6942 162.72 31.2721 162.569 31.7322ZM175.776 34.3616C175.682 34.8649 175.167 35.3547 174.377 35.4024C173.555 35.4443 172.264 35.5612 171.716 35.882C171.167 36.2028 169.998 36.5378 169.886 37.1355C169.775 37.7331 170.113 38.187 171.734 39.2709C172.664 39.8679 173.2 41.0096 173.43 41.3456C173.686 41.7189 173.955 42.1924 173.767 43.199C173.579 44.2056 173.104 44.833 172.469 45.2679C171.835 45.7028 171.149 46.063 170.398 46.2483C169.622 46.3963 168.354 46.9083 167.065 46.6674C165.743 46.4207 165.595 45.6443 165.695 45.1096C165.795 44.5748 166.219 43.8727 167.131 44.0431C168.012 44.2076 167.948 44.5536 169.031 44.3327C170.114 44.1118 169.948 43.9507 170.862 43.7633C171.751 43.5386 171.729 43.3066 171.852 42.646C171.976 41.9855 171.647 41.8265 170.563 41.0056C169.48 40.1846 169.59 39.9447 168.671 39.2849C167.753 38.6251 167.394 37.5815 167.582 36.5749C167.77 35.5683 168.748 33.9931 170.743 33.4216C172.763 32.8874 173.373 32.9361 174.411 33.13C175.543 33.3415 175.864 33.8897 175.776 34.3616ZM13.3184 41.4809C13.7651 42.0526 13.4765 42.5521 13.0382 42.633C12.594 42.7454 12.3209 42.9873 11.8114 42.4039C11.3018 41.8204 10.2835 41.6953 9.97272 41.442C9.62462 41.2142 8.7791 40.861 8.10922 41.4846C7.44522 42.0767 7.2779 41.7525 6.81476 42.8379C6.38894 43.8978 6.28907 44.4325 6.13045 45.2818C5.9777 46.0997 5.33585 47.4447 7.06594 47.7678C8.79602 48.091 11.1964 48.3114 11.69 48.6314C12.1777 48.983 11.6828 49.5416 11.5297 49.8385C11.351 50.0981 10.6282 51.0049 10.2721 50.6454C9.92197 50.2544 9.87668 50.1483 8.87008 49.9603C7.86349 49.7723 7.93265 50.2735 7.24061 50.1443C6.51712 50.0092 5.99412 49.8464 5.87662 50.4755C5.75325 51.1361 6.49889 52.0241 6.35581 52.6159C6.18715 53.1703 6.71811 53.4648 6.63244 54.6207C6.54677 55.7766 6.64567 56.6415 6.26649 56.9288C5.91876 57.2219 6.14311 57.5893 5.48253 57.466C4.85341 57.3485 4.40262 56.4505 4.1741 55.7567C3.92 55.0256 4.21791 53.7791 4.30603 53.3073C4.39416 52.8355 3.85316 52.2461 3.98241 51.5541C4.11753 50.8306 4.01447 49.6394 3.73136 49.5865C3.4168 49.5278 3.27714 49.4041 2.84226 48.7694C2.40738 48.1348 2.56772 46.9277 3.16538 47.0393C3.76305 47.151 4.08728 46.9836 4.02363 45.9301C3.99143 44.8823 4.03598 43.9466 4.18873 43.1288C4.34148 42.3109 5.03411 40.5196 5.48796 40.1812C5.91035 39.8369 7.1796 38.9671 7.58853 39.0435C7.99746 39.1199 8.91936 39.0642 9.45411 39.164C10.5865 39.3755 11.7407 39.819 12.0221 40.2296C12.2976 40.6717 12.8718 40.9092 13.3184 41.4809ZM25.6003 60.735C25.5122 61.2068 24.8658 61.7046 24.394 61.6165C23.9221 61.5284 23.3002 60.5007 22.9383 60.1727C22.5764 59.8447 22.0668 59.2612 22.1038 58.7147C22.1349 58.1997 21.4798 57.5239 21.2357 57.0877C21.0173 56.6888 21.066 56.0794 20.72 56.0148C20.3739 55.9501 19.8689 56.2139 19.6826 56.8627C19.5278 57.5174 18.7162 57.8542 18.4746 58.102C18.2586 58.3872 16.8341 59.3907 15.4186 59.1264C14.0031 58.862 13.5087 57.5001 13.1862 57.3096C12.8637 57.1192 13.1108 56.319 12.9552 55.9318C12.7741 55.5073 12.7301 54.5225 12.8829 53.7047C13.0415 52.8554 13.9958 51.4059 14.6439 50.5504C15.2979 49.6634 17.0683 48.7244 17.3238 48.5768C17.6048 48.4665 18.2675 48.7531 18.5837 48.4541C18.8685 48.1492 19.4292 48.8073 19.6964 48.5968C19.9892 48.4236 20.1918 48.5591 20.4434 48.6061C20.9782 48.7059 21.822 49.4169 22.1839 49.745C22.5517 50.0415 23.25 50.6602 23.0796 51.5725C22.9151 52.4532 22.5602 53.6565 22.5979 54.1519C22.6356 54.6472 22.9253 55.7105 23.3191 56.5653C23.7069 57.4516 23.9396 58.4716 24.4806 59.061C25.0531 59.6562 25.6884 60.2631 25.6003 60.735ZM20.8224 50.7603C20.7809 50.4595 19.8669 50.6469 19.5209 50.5823C19.2378 50.5294 19.1238 50.443 18.7777 50.3784C18.4003 50.3079 18.2236 50.7306 17.868 50.8921C17.5379 51.0909 17.5756 51.5862 17.1234 51.5669C16.7086 51.522 16.4854 52.7173 16.0135 52.6292C15.5417 52.541 15.1162 54.1218 14.9752 54.8767C14.8284 55.6631 14.6798 56.8073 15.6864 56.9953C16.693 57.1833 18.0344 55.5783 18.6708 54.7857C19.3071 53.993 19.9548 52.6165 20.1373 52.1623C20.3513 51.714 20.8895 51.0983 20.8224 50.7603ZM33.3484 46.0356C33.1663 47.0108 32.2939 47.4989 31.9164 47.4284C31.5075 47.352 31.0646 46.5857 30.7224 46.3264C30.4116 46.0731 29.965 45.5014 30.0473 45.061C30.1295 44.6206 30.7994 43.997 31.2083 44.0734C31.806 44.185 32.4963 44.672 32.5005 44.9983C32.4732 45.3187 33.5306 45.0605 33.3484 46.0356ZM31.0731 58.5669C30.7175 58.7283 30.4489 59.8175 30.3784 60.195C30.3138 60.541 30.0563 60.5255 29.6159 60.4432C29.1755 60.361 28.5854 59.8602 28.7852 58.7906C28.9849 57.7211 29.0249 55.9382 29.046 55.1283C29.0729 54.2869 29.4278 53.0836 29.2782 52.665C29.1226 52.2779 29.0555 51.9398 29.0966 51.7196C29.1378 51.4994 29.6797 50.6892 30.0887 50.7655C30.529 50.8478 31.3905 51.4644 31.2906 51.9992C31.1907 52.5339 30.9675 53.7293 31.0819 54.3366C31.1905 54.9754 31.2227 56.0231 31.1169 56.5893C31.0053 57.187 31.4288 58.4054 31.0731 58.5669ZM45.2855 54.7757C45.2267 55.0903 44.6941 55.1536 44.2222 55.0654C43.7818 54.9832 42.6712 55.0036 42.2232 55.3106C41.7497 55.5802 40.8458 56.0625 40.5257 56.5561C40.2115 57.0183 39.7103 57.0875 39.5634 57.8739C39.4166 58.6603 39.1874 59.887 39.2213 60.577C39.2238 61.2611 38.8177 62.3897 37.9369 62.2252C37.0561 62.0607 36.7056 61.1488 36.6482 60.5847C36.5593 60.0147 36.9059 58.1588 36.6719 58.0174C36.4064 57.8702 36.6477 57.1014 36.9501 56.7022C37.2526 56.3029 37.2048 55.5127 37.165 54.8542C37.0938 54.1898 37.1283 52.9593 38.1664 53.1531C38.5124 53.2177 39.0689 53.5496 39.0416 53.87C39.0143 54.1904 39.1758 54.5461 39.6435 54.3079C40.1111 54.0697 40.4668 53.9083 41.0918 53.6995C41.7167 53.4907 42.4285 53.6887 42.8962 53.4505C43.3324 53.2065 43.9615 53.324 44.3704 53.4003C44.7479 53.4708 45.3442 54.4611 45.2855 54.7757ZM55.9926 64.0348C55.9338 64.3494 55.5764 64.8686 54.928 65.2032C54.2539 65.5005 53.303 66.2344 51.1955 65.8408C49.0565 65.4413 48.437 65.0978 47.3941 63.5357C46.3138 61.9993 45.5187 60.6789 46.0119 60.478C46.4796 60.2398 46.3703 58.5592 46.5231 57.7413C46.6758 56.9235 47.852 55.1574 48.8386 54.7557C49.8309 54.3225 52.168 54.0103 52.7657 54.1219C54.1183 54.3745 54.3938 54.8166 54.6932 55.6538C54.9611 56.4851 54.9598 57.3638 54.7261 57.7434C54.461 58.117 54.4517 58.864 53.7265 59.0867C53.0013 59.3093 52.646 59.9917 52.2353 60.2731C51.7932 60.5486 50.4887 61.6071 49.9737 61.576C49.4272 61.539 48.9851 61.8146 49.3688 62.3745C49.7525 62.9345 50.2109 63.4433 52.2241 63.8193C54.2373 64.1953 53.8142 63.4977 54.4747 63.6211C55.1353 63.7445 56.0455 63.7517 55.9926 64.0348ZM52.3821 56.5243C52.2009 56.0998 51.6804 56.6211 51.3344 56.5565C50.9254 56.4801 50.6385 56.6219 49.8605 57.1276C49.108 57.6707 48.7053 58.0838 48.4779 58.9528C48.2446 59.8533 49.3628 59.4436 49.7026 59.0188C50.0423 58.5939 50.9836 58.0861 51.4924 57.6277C52.0012 57.1693 52.5377 56.9114 52.3821 56.5243ZM74.511 67.9492C74.7274 68.1849 74.8477 68.7608 74.2248 69.1327C73.6019 69.5047 71.8449 70.0229 70.9641 69.8584C70.0834 69.6939 70.0042 68.8979 69.4401 68.9553C68.8701 69.0441 67.6253 68.3885 67.2886 67.5769C66.946 66.7967 66.5615 65.1949 66.7084 64.4085C66.8494 63.6535 67.5894 62.1315 68.2727 61.0872C68.9561 60.0429 70.0265 58.8431 70.8599 58.7383C71.656 58.6591 72.2554 58.413 72.853 58.5246C73.7967 58.7008 74.1175 59.249 74.4224 59.5339C74.7529 59.856 74.7298 60.5028 74.671 60.8173C74.6181 61.1004 74.2587 61.4565 73.8497 61.3801C73.4408 61.3037 73.0453 60.8067 72.6679 60.7362C72.3219 60.6716 71.4452 60.8334 70.6579 62.0861C69.8705 63.3388 69.1242 64.3714 69.0126 64.9691C68.901 65.5667 68.5989 66.4869 70.048 66.9203C71.4912 67.3852 71.0176 67.6548 71.8984 67.8193C72.7792 67.9838 73.4691 67.9499 73.7795 67.6823C74.0526 67.4404 74.326 67.7193 74.511 67.9492ZM87.0163 65.5645C86.7343 67.0744 85.7288 68.4492 84.9155 69.1436C84.1081 69.8067 82.6266 70.767 81.7458 70.6025C80.865 70.438 79.3229 69.1083 78.9258 68.969C78.5227 68.8612 78.8085 67.1567 78.4407 66.8601C78.0729 66.5635 77.956 65.2721 78.0735 64.643C78.191 64.0139 78.967 63.345 79.2476 62.7138C79.5598 62.0885 79.9821 61.7441 80.3911 61.8205C80.8 61.8969 81.6082 62.2757 81.5318 62.6846C81.4613 63.0621 80.489 64.085 80.3421 64.8714C80.1894 65.6893 80.7639 66.4476 80.711 66.7307C80.6523 67.0453 80.8946 67.8393 81.8069 68.0096C82.7505 68.1859 83.3223 67.7393 84.0215 66.9584C84.7266 66.146 84.8424 65.8747 84.9188 65.4657C84.9952 65.0568 84.4832 63.7893 84.0898 63.4554C83.6905 63.1529 83.0199 62.7347 82.6739 62.6701C82.3279 62.6054 81.9048 61.9079 82.0281 61.2473C82.1515 60.5867 83.185 59.9334 83.531 59.998C83.94 60.0744 85.3801 61.7757 85.8167 62.0526C86.2906 62.3038 87.2983 64.0546 87.0163 65.5645ZM103.428 72.9593C103.358 73.3367 102.016 74.4208 101.575 74.3386C101.135 74.2563 100.154 73.5847 100.295 72.8298C100.436 72.0748 100.226 70.408 100.159 69.549C100.085 68.7215 99.5125 67.6054 99.302 67.3382C99.06 67.0651 98.7963 66.5601 97.8962 66.8477C97.0275 67.1413 95.9877 67.3052 95.2394 68.1745C94.4596 69.0381 93.6349 70.3164 93.6726 70.8117C93.7044 71.3385 93.3173 71.4941 92.8731 71.6064C92.4663 71.6932 92.3723 72.1965 91.9948 72.126C91.6488 72.0614 90.6822 70.0904 90.7762 69.5871C90.8643 69.1153 91.3675 66.2469 91.1822 65.4961C91.0027 64.7139 90.9878 63.0509 92.1517 63.2683C92.7179 63.374 93.5911 63.9277 93.4031 64.9343C93.2092 65.9724 92.8035 67.6219 93.8819 66.5538C94.9662 65.4541 95.2355 65.4068 95.6855 65.263C96.1041 65.1133 96.7191 64.6096 97.2538 64.7095C97.7886 64.8093 98.4546 64.3803 98.7692 64.4391C99.0838 64.4978 100.107 65.4702 100.661 65.6388C101.21 65.8389 102.036 67.1652 102.204 68.0104C102.372 68.8555 102.384 70.3554 102.479 70.8939C102.685 72.2344 103.493 72.6132 103.428 72.9593ZM117.894 75.5633C117.83 75.9094 116.459 77.6716 115.987 77.5835C115.547 77.5013 115.554 76.5911 115.32 76.4498C115.048 76.334 115.437 75.2997 114.9 75.0367C114.363 74.7737 114.884 74.2524 115.057 74.0242C115.235 73.7646 115.457 72.927 115.26 72.2392C115.088 71.5886 115.572 69.6933 114.723 69.5347C113.842 69.3702 113.404 69.4511 112.869 69.3512C112.335 69.2514 112.167 68.9271 111.629 69.0219C111.122 69.1225 110.681 69.0402 110.886 69.8598C111.091 70.6794 110.903 71.686 111.133 72.0219C111.326 72.3835 111.639 74.7206 111.527 75.3182C111.415 75.9159 110.623 76.3214 110.403 76.2803C110.183 76.2391 109.809 75.4531 109.481 75.2941C109.158 75.1037 109.108 74.1503 109.24 73.6214C109.397 73.1299 108.975 72.5955 109.168 71.9152C109.397 71.2094 108.862 71.1095 108.962 70.5747C109.062 70.04 108.757 69.2342 108.222 69.1344C107.687 69.0345 107.003 68.516 106.936 68.178C106.894 67.8772 106.576 67.4922 106.554 67.2602C106.564 67.0342 107.253 66.4793 107.662 66.5557C108.102 66.638 109.412 66.9476 109.401 66.1318C109.385 65.3475 109.542 64.335 109.706 63.4543C109.865 62.605 110.627 61.3149 110.518 61.197C110.416 61.0477 111.001 59.6595 111.486 59.3269C111.971 58.9944 113.337 58.3054 113.872 58.4053C114.124 58.4522 114.568 58.8608 114.792 58.7073C115.016 58.5538 115.716 58.8148 115.875 59.0073C116.035 59.1998 116.619 59.7321 116.965 59.7968C117.311 59.8614 118.224 61.0736 118.142 61.514C118.06 61.9544 117.429 62.1946 117.588 62.3872C117.747 62.5797 117.333 62.5348 117.11 62.3305C116.919 62.1321 116.127 61.4958 116.125 61.3326C116.123 61.1695 115.883 61.0595 115.379 60.9655C114.876 60.8715 114.163 61.0313 113.819 61.1298C113.475 61.2283 112.718 61.4451 112.192 62.5188C111.666 63.5925 111.119 65.476 111.06 65.7906C111.001 66.1051 110.925 66.5141 111.774 66.6727C112.592 66.8254 113.687 67.0625 113.931 66.9778C114.2 66.9305 114.574 67.1956 114.861 67.0538C115.179 66.918 115.683 67.012 115.964 66.9017C116.213 66.7855 116.737 67.4692 116.864 67.6559C116.992 67.8425 117.157 69.4032 117.326 69.8906C117.458 70.4036 117.292 71.6421 117.385 72.0175C117.477 72.3929 117.217 73.6138 117.41 73.9754C117.628 74.3743 117.959 75.2173 117.894 75.5633ZM133.7 80.9243C133.612 81.3961 132.965 81.8939 132.494 81.8058C132.022 81.7176 131.4 80.69 131.038 80.362C130.676 80.0339 130.166 79.4505 130.203 78.904C130.234 78.3889 129.579 77.7132 129.335 77.277C129.117 76.8781 129.166 76.2687 128.82 76.204C128.474 76.1394 127.969 76.4032 127.782 77.052C127.627 77.7067 126.816 78.0434 126.574 78.2913C126.358 78.5765 124.934 79.58 123.518 79.3156C122.103 79.0513 121.608 77.6894 121.286 77.4989C120.963 77.3085 121.21 76.5082 121.055 76.1211C120.874 75.6966 120.83 74.7118 120.982 73.8939C121.141 73.0446 122.095 71.5952 122.743 70.7396C123.397 69.8526 125.168 68.9137 125.423 68.7661C125.704 68.6558 126.367 68.9423 126.683 68.6433C126.968 68.3384 127.529 68.9966 127.796 68.786C128.089 68.6128 128.291 68.7483 128.543 68.7953C129.078 68.8952 129.922 69.6062 130.284 69.9342C130.651 70.2308 131.35 70.8495 131.179 71.7617C131.015 72.6425 130.66 73.8458 130.697 74.3411C130.735 74.8365 131.025 75.8997 131.419 76.7546C131.807 77.6408 132.039 78.6609 132.58 79.2502C133.153 79.8454 133.788 80.4524 133.7 80.9243ZM128.922 70.9495C128.88 70.6488 127.967 70.8362 127.621 70.7716C127.337 70.7187 127.223 70.6323 126.877 70.5677C126.5 70.4972 126.323 70.9199 125.968 71.0814C125.637 71.2801 125.675 71.7755 125.223 71.7561C124.808 71.7112 124.585 72.9065 124.113 72.8184C123.641 72.7303 123.216 74.3111 123.075 75.066C122.928 75.8524 122.779 76.9966 123.786 77.1846C124.793 77.3726 126.134 75.7676 126.77 74.9749C127.407 74.1823 128.054 72.8058 128.237 72.3516C128.451 71.9032 128.989 71.2876 128.922 70.9495ZM148.923 81.4561C148.852 81.8335 147.51 82.9176 147.07 82.8354C146.63 82.7531 145.648 82.0815 145.789 81.3266C145.93 80.5716 145.721 78.9048 145.653 78.0459C145.58 77.2183 145.007 76.1022 144.797 75.835C144.555 75.5619 144.291 75.0569 143.391 75.3446C142.522 75.6381 141.482 75.802 140.734 76.6714C139.954 77.5349 139.13 78.8132 139.167 79.3085C139.199 79.8353 138.812 79.9909 138.368 80.1033C137.961 80.19 137.867 80.6933 137.489 80.6228C137.143 80.5582 136.177 78.5873 136.271 78.084C136.359 77.6121 136.862 74.7437 136.677 73.993C136.497 73.2107 136.482 71.5477 137.646 71.7651C138.212 71.8708 139.086 72.4246 138.898 73.4312C138.704 74.4692 138.298 76.1188 139.376 75.0506C140.461 73.951 140.73 73.9036 141.18 73.7598C141.599 73.6101 142.214 73.1064 142.748 73.2063C143.283 73.3062 143.949 72.8772 144.264 72.9359C144.578 72.9947 145.601 73.967 146.156 74.1356C146.704 74.3358 147.531 75.662 147.699 76.5072C147.866 77.3523 147.879 78.8522 147.974 79.3907C148.179 80.7312 148.987 81.1101 148.923 81.4561ZM160.155 83.9445C160.371 84.1803 160.492 84.7561 159.869 85.1281C159.246 85.5001 157.489 86.0183 156.608 85.8538C155.727 85.6893 155.648 84.8932 155.084 84.9506C154.514 85.0395 153.269 84.3838 152.933 83.5722C152.59 82.7921 152.206 81.1903 152.352 80.4039C152.493 79.6489 153.233 78.1269 153.917 77.0826C154.6 76.0383 155.671 74.8384 156.504 74.7337C157.3 74.6545 157.899 74.4083 158.497 74.5199C159.441 74.6962 159.762 75.2444 160.067 75.5292C160.397 75.8514 160.374 76.4981 160.315 76.8127C160.262 77.0958 159.903 77.4518 159.494 77.3755C159.085 77.2991 158.689 76.802 158.312 76.7315C157.966 76.6669 157.089 76.8287 156.302 78.0815C155.515 79.3342 154.768 80.3668 154.657 80.9644C154.545 81.5621 154.243 82.4823 155.692 82.9157C157.135 83.3805 156.662 83.6502 157.543 83.8147C158.423 83.9792 159.113 83.9453 159.424 83.6777C159.697 83.4357 159.97 83.7147 160.155 83.9445ZM173.369 85.9567C173.311 86.2713 172.953 86.7905 172.305 87.1251C171.631 87.4224 170.68 88.1563 168.572 87.7627C166.433 87.3632 165.814 87.0197 164.771 85.4576C163.69 83.9212 162.895 82.6008 163.389 82.3999C163.856 82.1617 163.747 80.4811 163.9 79.6632C164.052 78.8454 165.229 77.0793 166.215 76.6776C167.208 76.2444 169.545 75.9322 170.142 76.0438C171.495 76.2964 171.77 76.7385 172.07 77.5757C172.338 78.407 172.336 79.2857 172.103 79.6653C171.838 80.039 171.828 80.7859 171.103 81.0086C170.378 81.2312 170.023 81.9136 169.612 82.195C169.17 82.4705 167.865 83.529 167.35 83.4979C166.804 83.461 166.362 83.7365 166.745 84.2964C167.129 84.8564 167.588 85.3652 169.601 85.7412C171.614 86.1172 171.191 85.4197 171.851 85.543C172.512 85.6664 173.422 85.6736 173.369 85.9567ZM169.759 78.4462C169.578 78.0217 169.057 78.543 168.711 78.4784C168.302 78.402 168.015 78.5438 167.237 79.0495C166.485 79.5926 166.082 80.0057 165.855 80.8747C165.621 81.7752 166.739 81.3655 167.079 80.9407C167.419 80.5158 168.36 80.008 168.869 79.5496C169.378 79.0912 169.914 78.8334 169.759 78.4462ZM196.596 77.2083C196.508 77.6802 195.85 78.2409 195.679 78.6322C195.54 79.0294 194.825 80.0678 194.407 80.2175C193.988 80.3672 193.177 81.7457 192.721 81.921C192.228 82.1219 190.831 83.3259 190.735 83.666C190.614 83.9688 190.374 84.9008 189.954 84.8873C189.565 84.8797 189.15 85.3557 188.741 85.2794C188.301 85.1971 188.216 84.4325 187.856 84.2676C187.47 84.0654 187.794 83.3772 187.598 83.2102C187.395 83.0747 188.049 82.7086 188.175 82.2112C188.326 81.7511 189.108 81.0508 189.412 80.8147C189.748 80.5844 191.043 79.752 191.381 79.164C191.718 78.576 193.599 77.3972 193.734 76.6737C193.875 75.9188 193.57 75.113 192.846 74.9779C192.123 74.8428 190.937 74.3935 190.692 74.8359C190.415 75.2725 189.908 75.3731 188.996 75.7237C188.078 76.1057 187.345 76.7176 187.281 77.0636C187.222 77.3781 187.042 77.9955 186.475 77.8898C185.941 77.7899 184.814 77.026 184.961 76.2396C185.101 75.4847 185.812 74.6409 186.137 74.4735C186.492 74.3121 187.325 73.6864 187.815 73.6801C188.299 73.7054 189.709 72.6016 190.324 72.6188C190.934 72.6675 191.656 73.1604 192.06 72.9105C192.603 72.6211 193.272 73.3971 193.741 73.3221C194.186 73.2097 194.841 73.8855 195.366 74.2114C195.859 74.5315 195.86 75.5733 196.194 75.7009C196.523 75.8599 196.69 76.705 196.596 77.2083ZM191.721 90.0678C191.098 90.4397 191.776 90.9897 191.098 90.9606C190.426 90.9002 190.043 91.3821 189.697 91.3174C189.351 91.2528 188.596 91.1118 188.342 90.3807C188.119 89.6555 187.725 88.8007 187.784 88.4862C187.843 88.1716 189.272 87.4944 189.838 87.6001C190.372 87.7 190.968 88.1694 191.207 88.6371C191.451 89.0733 192.349 89.6643 191.721 90.0678Z" fill="white"/>
</svg>
